o Background_Tree_Atlas.005
usemtl Wood_Log
v 57.337639 173.380753 46.130188
v 57.383263 173.396927 46.124649
v 57.358284 173.378876 46.162628
v 57.396248 173.37529 46.166656
v 57.422859 173.372696 46.139206
v 65.489883 171.153992 47.810776
v 65.452171 171.158356 47.791092
v 65.593544 172.371078 47.796707
v 65.630943 172.36676 47.816376
v 57.297737 172.158066 46.228668
v 57.302193 172.157745 46.266708
v 57.418274 173.373032 46.100998
v 57.275902 172.160294 46.294083
v 65.432785 171.160583 47.749725
v 65.574409 172.373276 47.755386
v 65.446213 171.159012 47.717392
v 65.587776 172.371719 47.723053
v 57.23838 172.163849 46.290146
v 57.218109 172.16568 46.257858
v 57.230095 172.164459 46.221558
v 57.349754 173.379517 46.09375
v 59.995323 171.849228 46.722717
v 60.026878 171.8452 46.743225
v 60.185699 173.055756 46.744797
v 60.153633 173.05986 46.723679
v 59.959679 171.853745 46.735092
v 60.117493 173.064438 46.735184
v 60.150871 173.08075 46.767303
v 60.189461 173.055237 46.782761
v 60.10463 173.066055 46.770798
v 60.124458 173.063492 46.803864
v 60.162292 173.05867 46.809189
v 60.030525 171.844681 46.781067
v 60.00367 171.848083 46.807846
v 59.966393 171.852829 46.803345
v 59.946877 171.855347 46.770966
v 62.737709 171.490463 47.090088
v 62.769402 171.486588 47.111191
v 62.921181 172.698059 47.112152
v 62.889626 172.70192 47.091064
v 62.701561 171.494873 47.101807
v 62.853668 172.706299 47.102798
v 62.886299 172.722885 47.134598
v 62.840431 172.707916 47.138458
v 62.859688 172.705551 47.171219
v 62.924385 172.697647 47.150085
v 62.897087 172.700974 47.176392
v 65.620026 172.38855 47.767639
v 65.658241 172.363586 47.799469
v 65.655098 172.363922 47.758484
v 65.623726 172.367554 47.724289
v 65.482475 171.1548 47.718658
v 65.514229 171.151138 47.752914
v 62.688332 171.49649 47.137466
v 62.707649 171.49411 47.170227
v 62.745239 171.489517 47.17543
v 62.772659 171.486176 47.149139
v 57.26561 172.161057 46.208542
v 57.385704 173.376068 46.080719
v 65.517433 171.150787 47.793915
v 71.02285 170.576721 51.178101
v 70.996056 170.579529 51.204849
v 71.1213 171.794022 51.202087
v 71.148033 171.791214 51.175339
v 68.187973 170.871384 49.719589
v 68.201027 170.87001 49.689545
v 68.324318 172.084702 49.685349
v 68.311272 172.086075 49.715393
v 70.986458 170.580307 51.119766
v 71.018646 170.577057 51.140259
v 71.143829 171.79155 51.137512
v 71.111702 171.7948 51.11702
v 70.95063 170.584015 51.131851
v 71.075874 171.798492 51.12912
v 70.958282 170.583374 51.200058
v 71.083595 171.797867 51.197311
v 71.10894 171.81572 51.160446
v 70.938141 170.585373 51.167358
v 71.063454 171.799866 51.164627
v 68.269043 170.863525 49.741852
v 68.27256 170.863312 49.784637
v 68.395607 172.078033 49.780258
v 68.39209 172.078247 49.737473
v 68.330788 172.084305 49.762405
v 68.356766 172.102219 49.73819
v 68.368431 172.080719 49.791367
v 68.237167 170.866516 49.699387
v 68.360344 172.081223 49.695114
v 68.245323 170.865997 49.7957
v 68.20755 170.869598 49.766647
v 54.629768 173.626465 46.243546
v 54.615524 173.648209 46.203583
v 54.655495 173.623962 46.214294
v 54.538597 172.408539 46.181732
v 54.544304 172.408096 46.219345
v 54.649788 173.62439 46.177078
v 54.518578 172.410599 46.247498
v 54.480675 172.414169 46.244934
v 54.591866 173.63002 46.242706
v 46.234688 174.270691 46.005005
v 46.271271 174.288956 46.031372
v 46.2276 174.271271 46.042343
v 46.313126 174.265884 46.040131
v 46.303459 174.266373 46.00322
v 54.459282 172.416107 46.213623
v 54.570412 173.631958 46.212418
v 49.011841 172.864029 46.004288
v 48.988121 172.865784 46.034134
v 49.07283 174.083771 46.030365
v 49.096611 174.082016 46.0009
v 40.734169 173.263046 46.537659
v 40.738243 173.262985 46.499863
v 40.848427 174.48381 46.573242
v 40.844353 174.483871 46.611053
v 54.470329 172.414963 46.177139
v 54.581451 173.630829 46.175568
v 46.268517 174.268509 45.987549
v 48.950157 172.868439 46.03418
v 49.034744 174.086426 46.030014
v 48.926567 172.869965 46.004425
v 49.011147 174.087967 46.000122
v 40.761208 173.262634 46.56485
v 40.871712 174.483459 46.638321
v 40.79911 173.262054 46.560928
v 40.910049 174.482864 46.634491
v 40.819252 173.261734 46.528854
v 40.930443 174.482544 46.602463
v 40.80658 173.261932 46.492783
v 40.917641 174.482742 46.566345
v 40.88652 174.503662 46.596985
v 51.780457 172.65863 46.212448
v 51.755798 172.660873 46.241028
v 51.85601 173.877686 46.330246
v 51.880791 173.875427 46.301819
v 40.881126 174.483307 46.553314
v 48.935036 172.869247 45.96727
v 49.019623 174.087234 45.962997
v 43.464821 173.196732 46.156479
v 43.475868 173.196426 46.192871
v 43.523613 174.416428 46.190216
v 43.512444 174.416733 46.153839
v 43.502029 174.417175 46.221832
v 43.480759 174.438248 46.183807
v 43.429558 173.197845 46.142654
v 43.476738 174.417862 46.140045
v 49.054008 174.084778 45.94664
v 49.055321 174.105331 45.990494
v 49.003563 172.864471 45.967148
v 49.088333 174.082458 45.963623
v 46.252327 174.269821 46.071518
v 54.616844 173.627457 46.159836
v 51.773491 172.659119 46.175034
v 51.873825 173.875916 46.264435
v 46.290474 174.267426 46.070526
v 40.7705 173.262482 46.479858
v 51.717964 172.664154 46.239212
v 51.817917 173.880997 46.328308
v 51.840126 173.899445 46.289963
v 51.840126 173.878799 46.246216
v 51.805122 173.881897 46.260941
v 51.795326 173.882858 46.297455
v 54.505653 172.411591 46.162918
v 46.215363 173.048798 46.074707
v 46.177406 173.051193 46.075699
v 46.193466 173.049896 45.99173
v 46.228294 173.04776 46.007401
v 51.695625 172.666016 46.208389
v 48.96936 172.866791 45.950638
v 51.705345 172.665054 46.171768
v 43.396805 173.198929 46.161865
v 43.443489 174.418976 46.159302
v 46.15274 173.052643 46.046524
v 46.159836 173.052063 46.009186
v 43.39122 173.199173 46.19957
v 43.437775 174.41922 46.197006
v 43.416946 173.198395 46.227432
v 43.463814 174.418427 46.224854
v 46.237953 173.047272 46.044312
v 51.740044 172.661972 46.156891
v 43.45459 173.197174 46.224442
v 37.886551 173.281479 46.801605
v 37.917862 173.281494 46.779617
v 37.920494 174.502426 46.781723
v 37.889122 174.502411 46.803741
v 37.954323 173.281464 46.790359
v 37.957077 174.50238 46.792435
v 37.886612 174.502335 46.841797
v 37.927399 174.522766 46.82515
v 37.914726 174.502274 46.86734
v 37.912155 173.281342 46.865219
v 37.884102 173.281403 46.839661
v 37.949677 173.281326 46.858994
v 37.952438 174.502258 46.861084
v 37.968376 173.281372 46.825668
v 37.971199 174.502304 46.827744
v 35.218834 173.273376 47.234844
v 35.181564 173.273132 47.24229
v 35.167885 174.493973 47.005184
v 35.205406 174.494232 46.997387
v 32.442627 173.214645 47.906902
v 32.471931 173.215469 47.882076
v 32.444191 174.43605 47.890301
v 32.415016 174.435242 47.915112
v 35.139458 174.494003 46.944134
v 35.17849 174.514603 46.963009
v 35.13858 174.493881 46.981472
v 32.509262 173.216248 47.8894
v 32.481407 174.436829 47.897655
v 35.222847 174.494446 46.963955
v 35.207161 174.494461 46.930065
v 35.170013 174.494263 46.921215
v 35.152512 173.273041 47.217968
v 35.153267 173.273148 47.180233
v 35.183571 173.273407 47.157421
v 35.220528 173.273605 47.166805
v 35.236092 173.27359 47.20126
v 27.159958 174.363693 49.54826
v 27.12896 174.384079 49.516872
v 27.172638 174.363708 49.512615
v 24.498016 173.156693 50.407711
v 24.536041 173.156357 50.410046
v 24.545387 174.377243 50.30479
v 24.507431 174.377594 50.302425
v 21.914253 173.188492 51.611248
v 21.906723 173.1884 51.573925
v 21.918709 174.409271 51.569271
v 21.926239 174.409363 51.606594
v 24.47229 173.157028 50.436153
v 24.481766 174.37793 50.330837
v 27.152245 173.142761 49.480389
v 27.172447 173.142776 49.512814
v 27.152496 174.363693 49.480175
v 29.751877 173.159073 48.686489
v 29.749367 173.15921 48.648479
v 29.734062 174.380035 48.653255
v 29.736633 174.379913 48.69125
v 29.783188 173.159409 48.708263
v 29.767815 174.380234 48.713085
v 24.523865 174.39801 50.342907
v 29.819901 173.159943 48.697353
v 29.804276 174.380768 48.702236
v 29.834206 173.160294 48.661999
v 29.818451 174.381104 48.666927
v 27.159645 173.142746 49.548504
v 27.123314 173.1427 49.560604
v 27.123878 174.363632 49.560284
v 21.948074 173.188171 51.62878
v 21.960121 174.409042 51.624126
v 21.982841 173.187668 51.613247
v 21.994949 174.408539 51.608562
v 27.091003 173.142654 49.539989
v 27.09169 174.363602 49.539623
v 24.56691 174.377151 50.336117
v 24.487785 174.378006 50.368526
v 24.520729 174.377762 50.387218
v 24.555992 174.377396 50.372784
v 24.557564 173.156265 50.441372
v 24.546646 173.156494 50.478054
v 24.511314 173.156876 50.492519
v 24.47831 173.157104 50.473843
v 27.11409 173.142715 49.475658
v 27.114532 174.363647 49.475384
v 21.99231 173.187378 51.576366
v 22.004425 174.408249 51.571682
v 27.0868 173.14267 49.502224
v 27.087425 174.363602 49.501888
v 21.969475 173.187515 51.545895
v 21.981583 174.408386 51.54121
v 21.961563 174.429245 51.580135
v 21.93132 173.187973 51.544796
v 21.943367 174.408844 51.540127
v 29.815567 173.160172 48.628796
v 29.79982 174.380997 48.633709
v 29.774467 174.40094 48.669781
v 32.526329 173.2164 47.923306
v 32.510582 173.21582 47.958263
v 32.48278 174.436401 47.966503
v 32.498466 174.436981 47.931561
v 29.76223 174.380524 48.627605
v 32.454361 174.456436 47.933056
v 32.415894 174.435013 47.953274
v 32.446014 174.435532 47.976177
v 32.443443 173.214417 47.94508
v 29.777733 173.159698 48.622753
v 32.473625 173.214935 47.967968
v 12.069832 174.461472 57.433834
v 12.113441 174.481857 57.439571
v 12.081757 174.461426 57.470043
v 12.155235 174.461411 57.425884
v 12.128876 174.461456 57.398342
v 7.462334 173.22905 59.85812
v 7.489189 173.229019 59.885128
v 7.494896 174.449951 59.906994
v 7.46804 174.449982 59.879955
v 7.486931 173.228958 59.922009
v 7.492699 174.449875 59.943798
v 14.55809 173.238037 55.779736
v 14.552193 173.238052 55.820202
v 14.555206 174.458984 55.848598
v 14.561104 174.458969 55.80798
v 19.395813 173.212814 52.794949
v 19.386902 173.212784 52.757992
v 19.394684 174.433685 52.755367
v 19.403534 174.433716 52.792324
v 7.456123 174.470337 59.920101
v 19.430321 173.212616 52.811413
v 19.438103 174.433533 52.808773
v 19.464645 173.212372 52.794888
v 19.472488 174.433273 52.792217
v 19.472801 173.212234 52.757885
v 19.480713 174.433151 52.755184
v 7.462959 174.449844 59.962841
v 19.448837 173.212326 52.728191
v 19.456741 174.433228 52.725506
v 14.519127 173.238113 55.843517
v 14.522141 174.459045 55.872173
v 14.483803 173.238174 55.832073
v 14.486809 174.459106 55.860882
v 14.472755 173.238205 55.794552
v 14.475708 174.459152 55.82333
v 16.932213 173.228333 54.260281
v 16.970177 173.228149 54.255077
v 16.976013 174.449066 54.614513
v 16.937988 174.449249 54.620556
v 16.909813 173.228455 54.294353
v 16.91552 174.449387 54.654583
v 16.958694 174.46962 54.658138
v 17.000793 174.449005 54.640987
v 16.925629 174.449387 54.690792
v 16.960449 174.449249 54.702099
v 16.994019 174.449066 54.679897
v 16.995026 173.228073 54.282604
v 16.988251 173.228149 54.322033
v 16.954742 173.228317 54.343807
v 16.919914 173.228455 54.331478
v 19.410561 173.21257 52.728237
v 19.418404 174.433472 52.725567
v 19.43792 174.453873 52.764935
v 12.117462 174.461395 57.483379
v 12.150154 174.46138 57.463711
v 12.127998 173.240524 57.354748
v 12.154289 173.240479 57.38229
v 12.149269 173.240448 57.420086
v 12.116577 173.240448 57.439739
v 12.090851 174.461487 57.401882
v 12.068954 173.240524 57.390179
v 12.089973 173.24054 57.358257
v 9.708389 173.239197 58.695797
v 9.695778 173.239243 58.660809
v 9.694206 174.460175 58.692303
v 9.706818 174.460129 58.727245
v 9.744408 173.239182 58.711269
v 9.742836 174.460114 58.742855
v 14.4944 173.238174 55.759075
v 14.532425 173.238098 55.752499
v 14.535439 174.45903 55.780804
v 14.497414 174.459106 55.787609
v 14.519188 174.479477 55.825863
v 12.080879 173.240494 57.426388
v 5.290634 173.222778 61.463329
v 5.326088 173.222992 61.455853
v 5.34008 174.443909 61.475628
v 5.304756 174.44371 61.483242
v 5.273758 173.222534 61.498348
v 5.288002 174.443451 61.518429
v 5.329292 174.464081 61.519833
v 5.367249 174.443924 61.501263
v 5.302368 174.443359 61.554531
v 5.337067 174.443497 61.564526
v 5.365929 174.443741 61.540783
v 9.776779 173.239197 58.695492
v 9.775276 174.460144 58.727306
v 5.353256 173.223007 61.481533
v 5.351875 173.222824 61.520947
v 5.322891 173.222565 61.544521
v 5.288185 173.222443 61.53442
v 7.426315 173.229034 59.861431
v 7.432152 174.449966 59.88316
v 7.408493 173.228973 59.892651
v 7.414459 174.449905 59.914288
v 7.4282 174.44986 59.949703
v 9.781052 173.239258 58.660427
v 9.77961 174.46019 58.692364
v 9.754189 173.239288 58.632381
v 9.752686 174.46022 58.664257
v 9.738007 174.480591 58.701519
v 9.714661 174.46022 58.664211
v 9.716164 173.239288 58.632519
v 7.422234 173.228928 59.928082
v 7.457062 173.228912 59.941143
v 0.395882 173.184616 64.659431
v 0.421227 173.184814 64.62809
v 0.401527 174.405716 64.650475
v 0.375732 174.405518 64.68174
v 0.44677 174.405899 64.64637
v 0.427254 174.426102 64.686562
v -4.410347 174.342896 67.671806
v -4.384865 174.363297 67.707451
v -4.423775 174.342484 67.705437
v -4.350296 174.343399 67.690102
v -4.377655 174.343323 67.665016
v -4.407707 174.342361 67.74044
v -8.02166 174.259415 70.99807
v -8.053474 174.279129 71.015999
v -8.048836 174.259293 70.973289
v -4.37439 174.342606 67.750496
v -2.208527 173.157104 66.136253
v -2.241722 173.156647 66.156624
v -2.299828 174.377487 66.17202
v -2.26638 174.37796 66.151741
v -2.205269 173.15741 66.099373
v -2.262932 174.378265 66.114906
v -2.234192 173.157333 66.073647
v -2.291985 174.378189 66.089149
v -2.306351 174.398178 66.129829
v -2.337975 174.377243 66.160393
v -2.352287 174.377365 66.12571
v -2.331825 174.377792 66.093941
v -2.294052 173.156525 66.110344
v -2.273788 173.156937 66.078499
v -4.379601 173.121628 67.69622
v -4.365921 173.12204 67.66259
v -4.332848 173.122467 67.6558
v -4.363594 173.121506 67.731209
v -4.330086 173.12175 67.74128
v -4.304115 173.122223 67.718895
v -4.348793 174.343079 67.728111
v -4.305428 173.122543 67.680885
v 0.477325 174.405899 64.672462
v 0.388908 174.405426 64.716484
v 0.430954 174.405533 64.728676
v 0.47036 174.405746 64.709053
v -10.040064 172.991028 72.669228
v -10.02244 172.991623 72.635353
v -9.955103 174.212357 72.649193
v -9.972803 174.211777 72.683098
v -9.985102 172.992188 72.627968
v -9.91778 174.212936 72.641777
v -9.929193 174.232758 72.684547
v -9.888971 174.213043 72.66642
v -9.957422 174.211609 72.717842
v -9.920725 174.21199 72.72744
v -9.890162 174.212631 72.704521
v -9.956232 172.99231 72.652626
v -9.957422 172.991898 72.690697
v -12.464579 174.156815 74.382423
v -12.506937 174.176834 74.362633
v -12.459558 174.157364 74.344353
v -12.522928 172.936539 74.303627
v -12.492502 172.936707 74.328178
v -12.489985 174.157196 74.319801
v -12.497522 172.936157 74.366234
v -12.533976 172.935318 74.389214
v -12.501093 174.155975 74.405434
v -12.57432 172.934799 74.379753
v -12.541376 174.155457 74.395988
v -12.588694 172.935013 74.34507
v -12.555689 174.15567 74.36129
v -8.109001 173.037247 71.036003
v -8.125954 173.037415 71.001183
v -8.090187 174.258163 71.014381
v -8.073112 174.257996 71.049202
v -8.076698 173.037613 71.045738
v -8.041176 174.258377 71.058922
v -8.05323 173.038254 71.022942
v -8.018272 174.259003 71.03614
v -6.302063 173.087631 69.378014
v -6.318184 173.087814 69.343132
v -6.328545 174.308609 69.354927
v -6.312294 174.308411 69.389824
v -8.083534 173.038544 70.960075
v -8.056236 173.038651 70.984856
v -6.267738 173.088058 69.387917
v -6.278534 174.308853 69.399712
v -6.240944 173.088776 69.365257
v -6.252556 174.309555 69.377022
v -6.24189 173.089233 69.327171
v -6.254059 174.310028 69.338905
v -6.269814 173.089111 69.302269
v -6.281792 174.309906 69.314018
v -6.2892 174.329651 69.356697
v -8.079384 174.258743 70.980537
v -9.987925 172.991257 72.71357
v -10.024637 172.990875 72.703972
v -12.532907 174.156433 74.327339
v -12.565912 172.935776 74.311134
v 0.465904 173.184998 64.623878
v -2.279686 173.156387 66.145042
v -6.314987 174.309265 69.321144
v -6.303818 173.08847 69.309364
v 3.089256 173.202805 63.196896
v 3.075264 173.202911 63.161495
v 3.091766 174.423813 63.190456
v 3.105759 174.423706 63.225872
v 3.126534 173.202957 63.207973
v 3.143288 174.423859 63.23695
v 3.159035 173.203247 63.186275
v 3.176102 174.424164 63.215252
v 3.16217 173.203476 63.148205
v 3.179428 174.424377 63.177166
v 3.133873 173.203445 63.122356
v 3.15094 174.424347 63.151333
v 3.137009 174.444473 63.193569
v 3.111977 174.424088 63.157238
v 3.095154 173.203186 63.128277
v 0.409119 173.184525 64.694191
v 0.450783 173.184631 64.706322
v 0.489555 173.184845 64.686607
v 0.496208 173.185013 64.64994
v -8.114647 173.037979 70.967354
v -29.534971 172.249374 88.707191
v -29.551344 172.24971 88.670967
v -29.455458 173.457474 89.098244
v -29.439268 173.457184 89.133888
v -20.628485 173.891922 81.167976
v -20.666952 173.911911 81.148994
v -20.623907 173.892487 81.12957
v -20.662558 173.891037 81.191933
v -20.700521 173.890488 81.183342
v -20.713705 173.890686 81.14872
v -20.651953 173.892303 81.105507
v -20.691916 173.891495 81.114006
v -20.792562 172.670105 81.129982
v -20.77149 172.670914 81.095329
v -27.51129 172.378555 86.470482
v -27.478727 172.380188 86.462715
v -27.406126 173.594467 86.512306
v -27.438185 173.592758 86.520027
v -27.523588 172.376755 86.504326
v -27.450102 173.590912 86.553932
v -27.412138 173.613098 86.554893
v -29.496565 172.250031 88.718269
v -29.400679 173.457901 89.143379
v -27.378325 173.594818 86.536415
v -29.46475 172.251175 88.695732
v -29.368498 173.459106 89.119408
v -29.463621 172.251938 88.65667
v -29.367109 173.459869 89.080208
v -29.493986 172.25177 88.630394
v -29.397429 173.459625 89.055199
v -29.53314 172.250778 88.636757
v -29.436827 173.458557 89.06321
v -29.409727 173.478928 89.100044
v -20.730261 172.671722 81.086861
v -20.700521 172.671906 81.110954
v -20.703726 172.671356 81.149315
v -14.496605 174.093704 76.08123
v -14.479652 174.115067 76.047829
v -14.46566 174.094208 76.090584
v -14.51461 174.093903 76.046608
v -14.44973 174.095596 76.029427
v -14.476891 174.095413 76.004982
v -14.505882 174.094666 76.012611
v -14.571587 172.873245 76.030098
v -14.562477 172.874023 75.996101
v -14.533119 172.874771 75.988457
v -14.444771 174.095062 76.067482
v -14.505821 172.874954 76.012886
v -23.254721 172.604843 83.008858
v -23.270285 172.605042 82.973885
v -23.216269 173.825531 83.00486
v -23.200766 173.825333 83.039848
v -23.217337 172.605392 83.016304
v -23.163427 173.825882 83.047112
v -23.186087 172.606277 82.990501
v -23.131994 173.826782 83.021065
v -23.184515 172.606827 82.950966
v -23.130362 173.827332 82.981392
v -23.213873 172.606628 82.927361
v -23.159658 173.827148 82.957893
v -23.172018 173.846756 83.003242
v -14.501122 172.87442 76.050957
v -14.522453 172.873566 76.074059
v -14.553642 172.873047 76.06472
v -16.284964 172.812332 77.756783
v -16.301031 172.812561 77.722191
v -16.205587 174.033157 77.740288
v -16.189459 174.032913 77.774879
v -23.198004 173.82634 82.968315
v -16.248129 172.812943 77.765968
v -16.1527 174.033539 77.784065
v -16.21813 172.813934 77.742729
v -16.122763 174.034531 77.76078
v -16.217703 172.81456 77.704628
v -16.12232 174.035156 77.722679
v -16.247 172.814362 77.680305
v -16.151632 174.034958 77.698341
v -16.162298 174.054459 77.741325
v -16.188711 174.034058 77.706184
v -16.284155 172.813477 77.688103
v -18.598028 172.73967 79.455788
v -18.61315 172.739899 79.421242
v -18.532522 173.960434 79.440651
v -18.517523 173.960205 79.475182
v -18.561331 172.74028 79.464867
v -18.48107 173.960815 79.484276
v -18.530447 172.741272 79.441536
v -18.450262 173.961807 79.460945
v -18.528692 172.741898 79.403419
v -18.448385 173.962433 79.422859
v -18.55744 172.741684 79.379173
v -18.476934 173.962219 79.398598
v -18.489233 173.981735 79.441612
v -23.252157 172.605835 82.937553
v -25.595526 172.511612 84.831917
v -25.611593 172.51207 84.797401
v -25.564352 173.730835 84.845757
v -25.548285 173.730377 84.880257
v -25.557821 172.512741 84.840721
v -25.510702 173.731552 84.888847
v -25.526388 172.514603 84.817085
v -25.47933 173.73349 84.864998
v -25.524939 172.515793 84.778893
v -25.477942 173.734711 84.826714
v -25.554922 172.515427 84.754784
v -25.507803 173.734314 84.802727
v -25.519918 173.752975 84.846107
v -25.546469 173.732605 84.81118
v -25.593649 172.513779 84.763008
v -27.506392 172.376205 86.538658
v -27.433043 173.590378 86.588356
v -27.472944 172.377411 86.547737
v -27.400038 173.591644 86.597176
v -27.448042 172.379272 86.524635
v -27.375624 173.593567 86.57412
v -27.450605 172.380508 86.48687
v -18.514517 173.961319 79.406517
v -18.595083 172.740799 79.387093
v -20.777136 172.669907 81.164604
v -20.7376 172.670456 81.173225
vt 0.231373 0.810441
vt 0.233084 0.802961
vt 0.226164 0.806295
vt 0.226164 0.799627
vt 0.231373 0.795482
vt 0.251558 0.000078
vt 0.24497 0.000078
vt 0.24497 0.216243
vt 0.251558 0.216243
vt 0.977238 0.999903
vt 0.970659 0.999903
vt 0.970659 0.783738
vt 0.977238 0.783738
vt 0.964081 0.999903
vt 0.964081 0.783738
vt 0.238392 0.000078
vt 0.238393 0.216243
vt 0.284474 0.000078
vt 0.277895 0.000078
vt 0.277895 0.216243
vt 0.284475 0.216243
vt 0.957493 0.999903
vt 0.957493 0.783738
vt 0.950916 0.999903
vt 0.950916 0.783738
vt 0.996997 0.999903
vt 0.990418 0.999903
vt 0.990418 0.783738
vt 0.996998 0.783738
vt 0.271305 0.000078
vt 0.264715 0.000078
vt 0.264715 0.216243
vt 0.271305 0.216243
vt -0.439284 0.051818
vt -0.443602 0.058337
vt -0.436644 0.057556
vt -0.439244 0.063887
vt -0.445172 0.051005
vt -0.445123 0.066026
vt -0.449856 0.062395
vt -0.449878 0.055699
vt 0.258136 0.000078
vt 0.258136 0.216243
vt 0.983828 0.999903
vt 0.983828 0.783738
vt 0.237869 0.796951
vt 0.240761 0.802961
vt 0.237869 0.808971
vt -0.487003 0.064149
vt -0.491336 0.058599
vt -0.492843 0.066288
vt -0.4929 0.051267
vt -0.487049 0.05208
vt -0.484423 0.057819
vt -0.497547 0.062657
vt -0.497573 0.055961
vt 0.201491 0.000353
vt 0.194903 0.000353
vt 0.194903 0.216518
vt 0.201491 0.216518
vt 0.221238 0.000353
vt 0.214649 0.000353
vt 0.214649 0.216518
vt 0.221239 0.216518
vt 0.234408 0.000353
vt 0.227828 0.000353
vt 0.227828 0.216518
vt 0.234408 0.216518
vt 0.208069 0.000353
vt 0.208069 0.216518
vt 0.188326 0.000353
vt 0.188326 0.216518
vn 0.8196 -0.5662 -0.0875
vn -0.0952 -0.9954 0.0041
vn 0.4068 -0.5613 -0.7207
vn -0.3455 -0.4926 -0.7987
vn -0.8733 -0.4113 -0.2613
vn -0.0337 0.0085 -0.9994
vn 0.7177 -0.0805 -0.6917
vn 0.5762 -0.5394 -0.6141
vn -0.0956 -0.4782 -0.873
vn -0.8456 0.1381 0.5156
vn -0.937 0.0568 -0.3448
vn -0.783 -0.3806 0.492
vn -0.3375 -0.065 -0.9391
vn 0.9931 -0.1158 -0.0203
vn 0.8137 -0.5812 -0.0078
vn 0.5354 -0.0664 0.842
vn 0.4127 -0.5408 0.733
vn 0.5025 -0.1391 -0.8533
vn 0.9825 -0.1123 -0.1487
vn 0.7329 -0.0006 0.6803
vn 0.5848 -0.5063 0.6338
vn -0.1261 0.0159 0.9919
vn -0.8468 0.1105 0.5204
vn -0.805 -0.3804 0.4552
vn -0.174 -0.4632 0.869
vn 0.6917 -0.0904 0.7166
vn 0.5442 -0.5544 0.6297
vn -0.1269 -0.9919 -0.0017
vn -0.8788 -0.3699 -0.3016
vn 0.8043 -0.588 -0.0858
vn 0.4147 -0.5369 -0.7347
vn -0.3356 -0.4395 -0.8332
vn -0.9315 0.1226 -0.3425
vn -0.3131 0.042 -0.9488
vn 0.5419 -0.0702 -0.8375
vn 0.9868 -0.1286 -0.0989
vn -0.134 0.016 0.9909
vn -0.853 0.1065 0.511
vn -0.8079 -0.383 0.4479
vn -0.1769 -0.4615 0.8693
vn 0.6858 -0.0867 0.7227
vn 0.5428 -0.5507 0.6341
vn -0.1222 -0.9925 -0.0004
vn 0.8084 -0.5834 -0.0779
vn 0.4229 -0.535 -0.7314
vn -0.8735 -0.3745 -0.3109
vn -0.3267 -0.4419 -0.8355
vn -0.115 -0.9934 0.0004
vn -0.8246 -0.3954 -0.4045
vn -0.8589 -0.3765 0.3471
vn -0.4075 -0.4383 0.8011
vn -0.4126 0.0438 0.9098
vn -0.9096 0.1038 0.4023
vn 0.9883 -0.124 -0.0884
vn 0.5494 -0.0683 -0.8327
vn -0.3044 0.0389 -0.9517
vn -0.928 0.1165 -0.354
vn -0.095 0.1135 0.989
vn -0.1328 -0.4238 0.896
vn -0.8851 0.1049 -0.4534
vn -0.9383 0.096 -0.3323
vn -0.3209 0.0309 -0.9466
vn -0.3311 -0.4497 -0.8295
vn -0.8724 -0.3931 -0.2906
vn 0.9949 -0.1009 0.0081
vn 0.4321 -0.0407 0.9009
vn 0.3294 -0.5235 0.7858
vn 0.8187 -0.5736 0.0267
vn -0.1193 0.0145 0.9927
vn -0.8435 0.0881 0.5299
vn -0.7896 -0.3992 0.466
vn -0.1535 -0.464 0.8724
vn 0.6982 -0.0704 0.7124
vn 0.5638 -0.5386 0.6262
vn 0.5375 -0.0574 -0.8413
vn 0.4227 -0.5264 -0.7377
vn -0.1022 -0.9948 0.0022
vn 0.9889 -0.1023 -0.1074
vn 0.8188 -0.5665 -0.0927
vn -0.9296 0.0955 0.356
vn -0.847 0.0839 -0.525
vn -0.781 -0.4192 -0.4629
vn -0.8723 -0.3819 0.3054
vn 0.6518 -0.5291 -0.5433
vn -0.098 -0.9952 0.0034
vn 0.0514 -0.5041 -0.8621
vn -0.5566 0.0593 0.8287
vn -0.5222 -0.4277 0.7378
vn 0.1339 -0.0171 -0.9909
vn 0.7882 -0.0821 -0.6099
vn -0.3845 -0.4479 -0.8072
vn -0.0933 -0.9956 0.0027
vn -0.8823 -0.4004 -0.2473
vn -0.8154 0.0765 0.5738
vn -0.9541 0.0862 -0.2868
vn -0.7581 -0.4094 0.5075
vn -0.3855 0.0325 -0.9222
vn 0.4793 -0.0457 -0.8765
vn 0.3745 -0.5179 -0.7691
vn 0.6722 -0.5204 0.5267
vn -0.0624 -0.998 0.0036
vn 0.8173 -0.532 -0.2216
vn -0.8894 -0.4259 -0.1663
vn -0.6981 -0.4349 0.5688
vn 0.9835 -0.0902 -0.1568
vn 0.8183 -0.5575 -0.1396
vn -0.9717 0.0669 -0.2265
vn -0.4298 0.0271 -0.9025
vn -0.4096 -0.4549 -0.7907
vn -0.8858 -0.4196 -0.1981
vn 0.948 -0.0669 -0.3112
vn 0.8384 -0.1079 0.5343
vn 0.7145 -0.5319 0.4545
vn 0.8037 -0.5133 -0.3011
vn 0.7397 -0.0665 0.6696
vn 0.6072 -0.5359 0.5866
vn -0.0053 -0.4771 0.8788
vn 0.4357 -0.0333 -0.8995
vn 0.3495 -0.508 -0.7873
vn 0.9729 -0.0683 -0.2208
vn 0.8205 -0.5386 -0.1917
vn 0.3594 0.0237 -0.9329
vn 0.2744 -0.4699 -0.839
vn -0.5147 0.0981 -0.8517
vn -0.4838 -0.4344 -0.7598
vn -0.9906 0.096 -0.0971
vn -0.8954 -0.4315 -0.11
vn -0.6895 0.0191 0.724
vn -0.6432 -0.4642 0.6089
vn -0.015 -0.9999 0.0003
vn -0.9652 0.0974 -0.2426
vn -0.3927 0.0994 -0.9143
vn -0.3824 -0.421 -0.8225
vn -0.8845 -0.3979 -0.2435
vn 0.0692 -0.5095 0.8577
vn 0.7792 -0.052 0.6246
vn 0.6503 -0.5237 0.5503
vn -0.7316 0.03 0.6811
vn -0.988 0.0383 -0.1498
vn -0.8843 -0.4484 -0.1303
vn -0.6594 -0.4553 0.5982
vn -0.4574 -0.465 -0.758
vn -0.0335 -0.9994 0.0018
vn 0.08 -0.0009 0.9968
vn 0.0518 -0.4803 0.8755
vn -0.0368 -0.4746 0.8794
vn -0.0694 -0.9976 0.0042
vn -0.7829 0.0564 0.6196
vn -0.7207 -0.4287 0.5447
vn 0.3276 -0.5034 -0.7995
vn -0.0856 -0.4714 0.8778
vn -0.7986 0.0216 0.6015
vn -0.7467 -0.4351 0.5032
vn -0.433 -0.4566 -0.7772
vn 0.1205 -0.0704 0.9902
vn 0.4851 0.0242 -0.8741
vn 0.3782 -0.4861 -0.7879
vn -0.086 -0.9963 0.002
vn -0.0845 -0.5042 0.8594
vn 0.6151 -0.5526 0.5625
vn 0.8211 -0.5439 -0.173
vn -0.0502 0.0071 0.9987
vn -0.4596 0.0253 -0.8878
vn 0.4071 -0.0281 -0.9129
vn 0.0275 0.0018 0.9996
vn -0.7616 0.0492 0.6462
vn 0.9841 -0.0687 -0.1635
vn -0.0033 0.0035 1
vn 0.7356 -0.1093 0.6685
vn 0.8276 -0.0305 0.5605
vn 0.7087 -0.5043 0.4934
vn 0.9651 -0.0602 -0.2547
vn 0.7999 -0.0471 0.5983
vn 0.9547 -0.0371 -0.2952
vn 0.8206 -0.5098 -0.2585
vn 0.3641 -0.0159 -0.9312
vn 0.3014 -0.4928 -0.8163
vn -0.9798 0.0598 -0.1911
vn -0.0537 -0.0686 0.9962
vn -0.501 0.0177 -0.8652
vn 0.8719 -0.0027 0.4896
vn 0.1629 -0.002 0.9866
vn 0.1418 -0.4813 0.865
vn 0.7644 -0.4813 0.4289
vn -0.6729 0.0003 0.7397
vn -0.5912 -0.48 0.6482
vn 0.8129 -0.4801 -0.3296
vn -0.0007 -1 -0.0018
vn 0.2478 -0.4786 -0.8423
vn 0.2834 0.0011 -0.959
vn 0.9273 -0.0013 -0.3743
vn -0.5739 0.0027 -0.8189
vn -0.5044 -0.4774 -0.7195
vn -0.9978 0.0024 -0.0662
vn -0.8764 -0.4781 -0.0586
vn -0.5707 -0.1627 -0.8049
vn 0.2253 -0.1833 -0.9569
vn 0.2118 -0.5551 -0.8043
vn -0.5188 -0.5469 -0.6571
vn 0.9118 0.0179 0.4102
vn 0.2518 -0.0008 0.9678
vn 0.2315 -0.4797 0.8463
vn 0.8113 -0.4632 0.3567
vn 0.7904 -0.4305 0.4358
vn 0.0075 -1 0.0007
vn 0.7991 -0.5017 -0.3314
vn -0.6046 -0.0192 0.7963
vn -0.5197 -0.496 0.6956
vn -0.8751 -0.4839 0.0129
vn -0.5611 -0.4183 0.7143
vn 0.1814 -0.3962 0.9001
vn 0.8849 -0.079 -0.4589
vn 0.9072 0.0898 0.4111
vn 0.2049 0.1883 0.9605
vn -0.6604 0.1359 0.7385
vn -0.9966 -0.0262 -0.0786
vn -0.6137 -0.4798 -0.627
vn 0.0009 -1 -0.0002
vn -0.8724 -0.4798 0.0931
vn 0.3849 0.0763 0.9198
vn -0.5013 0.0781 0.8618
vn -0.4382 -0.4415 0.783
vn 0.3286 -0.4456 0.8327
vn 0.7984 -0.0101 -0.6021
vn 0.9684 -0.0086 0.2491
vn 0.8447 -0.4877 0.2205
vn 0.6955 -0.4893 -0.5262
vn 0.9646 0.0152 0.2632
vn 0.8392 -0.4742 0.2662
vn -0.5389 0.0003 0.8424
vn -0.9943 0.0002 0.1064
vn -0.4732 -0.4791 0.7393
vn 0.8706 0.0128 -0.4917
vn 0.9275 0.0102 0.3737
vn 0.8203 -0.4699 0.3261
vn 0.7703 -0.4677 -0.4335
vn 0.1596 0.0059 -0.9872
vn 0.1462 -0.4738 -0.8684
vn -0.0089 -0.9999 0.0059
vn -0.6729 -0.0057 -0.7397
vn -0.5845 -0.4843 -0.651
vn -0.9979 -0.0131 0.064
vn -0.8695 -0.491 0.0543
vn -0.6992 0 -0.7149
vn 0.124 -0.0003 -0.9923
vn 0.1086 -0.4789 -0.8711
vn 0.0282 -0.0041 -0.9996
vn 0.0197 -0.4834 -0.8752
vn -0.7646 0.0051 -0.6445
vn -0.676 -0.4744 -0.5638
vn 0.8491 -0.0006 -0.5282
vn 0.7455 -0.4791 -0.4633
vn -0.872 -0.465 0.1533
vn 0.714 -0.5073 -0.4825
vn 0.051 -0.5188 -0.8534
vn -0.6521 -0.4996 -0.5702
vn -0.9909 0.0191 0.1333
vn -0.7297 -0.0532 -0.6817
vn 0.0607 -0.0862 -0.9944
vn 0.8094 -0.0567 -0.5846
vn 0.3191 0.0001 0.9477
vn 0.2804 -0.4791 0.8317
vn -0.9808 0.0105 0.1947
vn -0.866 -0.4693 0.1728
vn 0.9419 -0.0004 0.336
vn 0.8266 -0.4792 0.295
vn -0.4604 0.008 0.8877
vn -0.4091 -0.4716 0.7812
vn -0.012 -0.9999 0.0045
vn 0.4074 -0.0005 0.9132
vn 0.3526 -0.48 0.8032
vn -0.5723 -0.0107 0.82
vn -0.4962 -0.4888 0.7176
vn 0.0134 -0.9999 -0.0041
vn -0.9995 -0.0229 0.0217
vn -0.6462 -0.0096 -0.7631
vn -0.5562 -0.4871 -0.6733
vn -0.8665 -0.4989 0.0163
vn 0.2564 -0.4793 0.8394
vn 0.0222 -0.9997 -0.0065
vn 0.792 -0.4592 -0.4023
vn 0.1818 -0.4699 -0.8638
vn 0.8905 0.0232 -0.4544
vn 0.2851 -0.0002 0.9585
vn 0.1947 0.011 -0.9808
vn 0.8694 -0.4821 0.1086
vn -0.0006 -1 -0.0008
vn 0.6332 -0.4691 -0.6157
vn -0.8342 -0.4836 0.265
vn -0.307 -0.494 0.8135
vn -0.3394 -0.0152 0.9405
vn -0.934 -0.002 0.3573
vn -0.8256 -0.4738 0.3063
vn -0.2995 -0.481 0.824
vn -0.864 0.0131 -0.5033
vn -0.7588 -0.47 -0.4509
vn -0.9517 -0.0048 0.307
vn -0.8554 0.0142 -0.5178
vn -0.7498 -0.4734 -0.4623
vn -0.8341 -0.4848 0.263
vn 0.7769 -0.0063 -0.6296
vn 0.9763 -0.0057 0.2164
vn 0.8536 -0.4846 0.1911
vn 0.679 -0.4849 -0.5512
vn 0.0009 -1 -0.0015
vn -0.0021 -0.0021 -1
vn -0.0051 -0.4812 -0.8766
vn -0.7838 0.0037 -0.621
vn -0.6909 -0.4764 -0.5437
vn -0.9735 0.0068 0.2287
vn -0.8573 -0.4738 0.2014
vn -0.0951 -0.4671 -0.8791
vn -0.4305 0.0048 0.9026
vn -0.381 -0.475 0.7933
vn -0.1529 0.0236 -0.988
vn -0.131 -0.4745 -0.8705
vn 0.7192 0.0146 -0.6946
vn 0.6233 -0.48 -0.6173
vn 0.9908 -0.0056 0.1355
vn 0.8681 -0.4847 0.1066
vn 0.49 -0.2487 0.8355
vn -0.2987 -0.2683 0.9159
vn -0.2885 -0.595 0.7502
vn 0.4559 -0.5826 0.6729
vn 0.9711 -0.0717 0.2275
vn 0.8659 -0.4929 0.085
vn -0.0047 -1 -0.0039
vn -0.8409 -0.5035 0.1983
vn 0.6388 -0.3949 -0.6603
vn -0.1108 -0.3584 -0.927
vn -0.7471 -0.3985 -0.532
vn -0.9311 -0.0989 0.3511
vn -0.8595 0.1476 -0.4893
vn -0.13 0.2799 -0.9512
vn 0.7601 0.1801 -0.6244
vn 0.4351 -0.0008 0.9004
vn 0.379 -0.4801 0.7911
vn -0.0062 -1 0.0022
vn -0.081 -0.464 -0.8821
vn -0.7346 -0.4704 -0.4889
vn -0.3469 -0.0332 0.9373
vn -0.9479 -0.0107 0.3184
vn -0.8401 0.02 -0.5421
vn -0.0926 0.0356 -0.9951
vn 0.4504 -0.4933 0.7442
vn 0.99 -0.0058 0.1411
vn 0.5102 -0.0311 0.8595
vn 0.7312 0.0185 -0.6819
vn 0.9891 -0.0026 0.147
vn 0.8698 -0.4785 0.1205
vn 0.6451 -0.4637 -0.6073
vn -0.0219 0.0258 -0.9994
vn -0.0221 -0.4622 -0.8865
vn 0.561 -0.0207 0.8276
vn -0.3125 -0.0213 0.9497
vn -0.2768 -0.4943 0.824
vn 0.4898 -0.4915 0.7201
vn -0.0025 -1 0.0001
vn 0.7256 0.0241 -0.6877
vn 0.6199 -0.02 0.7844
vn -0.2645 -0.0126 0.9643
vn -0.236 -0.4877 0.8405
vn 0.5399 -0.4876 0.6861
vn 0.9993 -0.0122 0.0364
vn 0.8778 -0.4784 0.0251
vn 0.0044 -1 -0.0044
vn -0.8134 -0.4771 0.3329
vn 0.5867 -0.4737 -0.6568
vn -0.1759 -0.4707 -0.8646
vn -0.7886 -0.4698 -0.3967
vn -0.8166 0.014 -0.577
vn -0.7143 -0.4718 -0.517
vn -0.9232 0.0044 0.3842
vn -0.8965 0.0175 -0.4428
vn -0.1965 0.0183 -0.9803
vn 0.6759 0.0043 -0.737
vn 0.5399 -0.0176 0.8415
vn 0.4748 -0.4841 0.735
vn 0.9969 -0.0062 0.0781
vn 0.8769 -0.4765 0.0639
vn 0.6192 -0.4675 -0.6309
vn -0.947 -0.0095 0.3212
vn -0.8356 -0.4795 0.268
vn -0.39 -0.0245 0.9205
vn -0.3441 -0.4825 0.8055
vn 0.0001 -1 -0.0013
vn 0.4027 -0.4871 0.7749
vn 0.4519 -0.0226 0.8918
vn 0.7063 0.0091 -0.7078
vn -0.1036 0.0182 -0.9945
vn 0.9861 0.0132 0.1654
vn 0.4659 -0.0087 0.8848
vn 0.418 -0.4899 0.765
vn 0.8648 -0.4843 0.1323
vn -0.2661 -0.4978 0.8255
vn 0.0038 -1 -0.004
vn 0.5728 -0.4663 0.6742
vn 0.0097 -0.9999 -0.0079
vn 0.8942 -0.4471 -0.0216
vn -0.7916 -0.488 0.3678
vn -0.2195 -0.4852 0.8464
vn 0.5861 -0.4513 -0.6729
vn -0.7977 -0.4589 0.3913
vn 0.0143 -0.9998 -0.012
vn -0.216 -0.4789 0.8509
vn -0.1755 -0.4718 -0.8641
vn -0.8519 -0.0337 -0.5227
vn -0.1356 0.0061 -0.9907
vn -0.1 -0.473 -0.8753
vn -0.7315 -0.498 -0.4657
vn -0.9297 -0.0486 0.3651
vn -0.8018 -0.5078 0.3151
vn -0.3064 -0.0265 0.9515
vn -0.2516 -0.4946 0.8319
vn 0.009 -0.9999 -0.0075
vn 0.6036 -0.4578 -0.6527
vn 0.8854 -0.459 0.0735
vn 0.48 -0.4747 0.7377
vn 0.9947 0.0463 0.0914
vn 0.5237 0.0141 0.8518
vn 0.9991 0.0364 -0.0233
vn 0.6362 0.0173 0.7714
vn -0.2725 -0.0173 0.962
vn 0.6527 0.0293 -0.7571
vn -0.2172 -0.0006 -0.9761
vn -0.9178 -0.0306 -0.3959
vn -0.7963 -0.4871 -0.3586
vn -0.9083 -0.0365 0.4167
vn -0.8176 -0.5021 0.282
vn 0.6006 -0.4773 -0.6415
vn -0.0761 -0.4741 -0.8771
vn -0.6963 -0.491 -0.5235
vn 0.998 -0.0553 0.0305
vn 0.6113 -0.0427 0.7903
vn 0.519 -0.4973 0.6952
vn 0.8672 -0.4975 0.0222
vn -0.2351 0.002 0.972
vn -0.2284 -0.4838 0.8449
vn 0.0124 -0.9999 -0.0106
vn -0.8116 -0.4669 0.3512
vn 0.5609 -0.4835 -0.672
vn -0.1752 -0.466 -0.8673
vn -0.7877 -0.4587 -0.4112
vn -0.9104 0.0455 0.4113
vn -0.8824 0.0539 -0.4674
vn -0.7397 -0.4777 -0.474
vn 0.0169 -0.9998 -0.0127
vn -0.8118 -0.4902 0.3173
vn -0.2395 -0.0064 0.9709
vn -0.9263 0.02 0.3762
vn -0.2228 -0.496 0.8392
vn -0.8387 0.0298 -0.5438
vn -0.1554 0.0173 -0.9877
vn -0.1427 -0.4715 -0.8702
vn 0.6549 -0.0076 -0.7557
vn 0.5667 -0.4829 -0.6676
vn 0.9948 -0.0282 0.098
vn 0.8657 -0.4946 0.0772
vn 0.6545 -0.011 -0.756
vn 0.9972 -0.0284 -0.0692
vn 0.8822 -0.4667 -0.0634
vn 0.567 -0.4613 -0.6824
vn -0.2255 0.017 -0.9741
vn -0.2148 -0.4612 -0.8609
vn -0.9358 0.0306 -0.3513
vn -0.8291 -0.4589 -0.3195
vn 0.6523 0.0129 -0.7579
vn 0.9997 0.0088 -0.0218
vn 0.8884 -0.4585 -0.0229
vn 0.5776 -0.4565 -0.6767
vn -0.2386 -0.0038 0.9711
vn -0.8947 0.0206 0.4461
vn -0.2097 0.0074 -0.9777
vn -0.1816 -0.4678 -0.865
vn -0.9147 -0.0048 -0.404
vn -0.7995 -0.4785 -0.3632
vn -0.9062 -0.0129 0.4227
vn -0.7938 -0.4828 0.3698
vn -0.2561 -0.0119 0.9666
vn -0.2163 -0.4862 0.8466
vn 0.0152 -0.9998 -0.0123
vn 0.5915 -0.4831 0.6456
vn -0.1746 0.0208 -0.9844
vn 0.6584 -0.0277 -0.7522
vn 0.479 -0.4955 0.7246
vn 0.5526 -0.026 0.833
vn -0.3048 -0.0222 0.9522
vn 0.6666 0.0412 -0.7443
vn 0.5681 -0.475 0.672
vn 0.6411 -0.0017 0.7675
vn 0.6806 0.0082 -0.7326
vn 0.996 -0.0156 0.0879
vn 0.871 -0.4867 0.0665
vn 0.5915 -0.4752 -0.6514
vn -0.1444 0.0255 -0.9892
vn -0.1308 -0.4681 -0.874
vn -0.8612 0.0241 -0.5077
vn -0.7565 -0.4723 -0.4524
vn -0.9284 0.0042 0.3717
vn -0.8172 -0.4833 0.314
vn -0.283 -0.0188 0.9589
vn -0.255 -0.4923 0.8322
vn 0.0048 -1 -0.0051
vn 0.486 -0.4935 0.7213
vn 0.5571 -0.0273 0.83
vn 0.678 0.0246 -0.7347
vn -0.0949 0.0168 -0.9953
vn -0.8028 -0.0017 -0.5963
vn -0.9418 -0.0209 0.3356
vn 0.6843 -0.0277 0.7287
vn 0.6942 0.19 -0.6942
vn 0.9866 -0.1182 0.1127
vn 0.8656 -0.499 -0.0425
vn 0.5648 -0.368 -0.7386
vn -0.7669 -0.4571 -0.4504
vn 0.0081 -0.9999 -0.0134
vn -0.8207 -0.4704 0.3243
vn -0.173 -0.4643 -0.8686
vn 0.5582 -0.4884 -0.6708
vn 0.8586 -0.5087 0.0633
vn -0.2227 -0.4887 0.8435
vn 0.4965 -0.5034 0.7072
vn 0.9948 -0.0651 0.0788
vn 0.5875 -0.0505 0.8076
vn 0.6851 -0.0709 0.725
vn -0.2069 -0.0276 0.978
vn -0.2018 -0.501 0.8416
vn 0.5867 -0.5014 0.6359
vn 0.9966 -0.0578 -0.0594
vn 0.8793 -0.4713 -0.0686
vn 0.0397 -0.9987 -0.0323
vn -0.1684 0.3393 -0.9255
vn -0.1729 -0.3272 -0.929
vn -0.7935 -0.4725 0.3835
vn -0.8969 0.2085 -0.39
vn -0.7914 -0.3857 -0.4742
vn -0.8694 -0.1005 0.4838
vn -0.8082 -0.5125 0.29
vn -0.1988 -0.3111 0.9293
vn -0.2195 -0.6217 0.7519
vn 0.5478 -0.3167 0.7744
vn 0.4965 -0.6187 0.6089
vn 0.0225 -0.9995 -0.0242
vn -0.2204 -0.0011 0.9754
vn -0.9206 0.0518 0.3871
vn -0.8572 0.0609 -0.5113
vn 0.5564 -0.4578 -0.6934
vn 0.0221 -0.9996 -0.0168
vn -0.2419 -0.4548 -0.8571
vn 0.8796 -0.4648 -0.1008
vn -0.792 -0.4509 0.4117
vn -0.2033 -0.4791 0.8539
vn 0.6156 -0.4867 0.6199
vn 0.9929 -0.0448 -0.1106
vn 0.7182 -0.0428 0.6945
vn -0.2163 -0.0033 0.9763
vn -0.8459 -0.4514 -0.284
vn -0.8821 0.0342 0.4699
vn 0.6364 -0.0086 -0.7713
vn 0.9987 -0.0448 0.0248
vn 0.8695 -0.4939 0.0085
vn 0.5411 -0.478 -0.6919
vn -0.2312 0.0348 -0.9723
vn -0.2162 -0.4635 -0.8593
vn -0.8933 0.0508 -0.4465
vn -0.7914 -0.4643 -0.3977
vn -0.9054 0.0296 0.4236
vn -0.8006 -0.4816 0.3566
vn -0.1875 -0.0163 0.9821
vn -0.1848 -0.4984 0.847
vn 0.0188 -0.9997 -0.014
vn -0.9505 0.0481 -0.307
vn -0.2443 0.0244 -0.9694
vn 0.6475 -0.0199 -0.7618
vn 0.6515 -0.0397 -0.7576
vn 0.9969 -0.0781 0.0099
vn 0.864 -0.5035 0.0025
vn 0.5484 -0.4835 -0.6822
vn 0.5499 -0.5013 0.6681
vn -0.1801 0.0286 -0.9832
vn -0.1897 -0.4601 -0.8674
vn -0.888 0.0761 -0.4535
vn -0.7978 -0.4516 -0.3995
vn -0.9008 0.064 0.4296
vn -0.8087 -0.4627 0.3632
vn -0.2145 0.0023 0.9767
vn -0.2188 -0.4857 0.8463
vn 0.0206 -0.9997 -0.0161
vn 0.528 -0.5043 0.6832
vn 0.6295 -0.0607 0.7746
vn 0.659 -0.0315 -0.7515
vn 0.9972 -0.0664 0.0354
vn 0.8664 -0.4988 0.024
vn 0.5586 -0.4813 -0.6756
vn -0.1783 0.0274 -0.9836
vn -0.1813 -0.4608 -0.8688
vn -0.8781 0.0653 -0.4739
vn -0.7858 -0.4557 -0.4181
vn -0.9114 0.0535 0.4079
vn -0.8136 -0.4683 0.3446
vn -0.222 -0.0009 0.975
vn -0.2222 -0.4878 0.8442
vn 0.0212 -0.9997 -0.0158
vn 0.6409 -0.0477 0.7662
vn 0.6433 0.0054 -0.7656
vn 0.999 -0.0396 0.0222
vn 0.8759 -0.4825 0.0007
vn 0.5543 -0.4581 -0.6949
vn -0.191 0.0461 -0.9805
vn -0.1789 -0.4507 -0.8745
vn -0.8833 0.0524 -0.4658
vn -0.7769 -0.4679 -0.4213
vn -0.9045 0.0182 0.4261
vn -0.7958 -0.4949 0.3489
vn -0.2094 -0.0304 0.9774
vn -0.1977 -0.5096 0.8374
vn 0.0369 -0.9989 -0.0286
vn 0.5366 -0.5041 0.6767
vn 0.6192 -0.0549 0.7833
vn 0.6498 -0.0082 -0.7601
vn 0.5565 -0.4457 -0.7012
vn -0.2138 0.0525 -0.9755
vn -0.2152 -0.4398 -0.8719
vn -0.9264 0.0704 -0.3699
vn -0.8222 -0.4514 -0.3468
vn -0.8877 0.0342 0.4592
vn 0.5216 -0.5003 0.6911
vn 0.6167 -0.0532 0.7854
vn 0.6569 -0.0301 -0.7533
vn -0.1772 0.0259 -0.9838
f 1/1/1 2/2/2 3/3/3
f 3/3/3 2/2/2 4/4/4
f 4/4/4 2/2/2 5/5/5
f 6/6/6 7/7/7 8/8/8 9/9/9
f 10/10/10 11/11/11 5/12/5 12/13/12
f 11/11/11 13/14/13 4/15/4 5/12/5
f 7/7/7 14/16/14 15/17/15 8/8/8
f 14/18/14 16/19/16 17/20/17 15/21/15
f 13/14/13 18/22/18 3/23/3 4/15/4
f 18/22/18 19/24/19 1/25/1 3/23/3
f 19/26/19 20/27/20 21/28/21 1/29/1
f 22/30/22 23/31/23 24/32/24 25/33/25
f 26/19/26 22/30/22 25/33/25 27/20/27
f 24/34/24 28/35/28 25/36/25
f 25/36/25 28/35/28 27/37/27
f 29/38/29 28/35/28 24/34/24
f 27/37/27 28/35/28 30/39/30
f 30/39/30 28/35/28 31/40/31
f 31/40/31 28/35/28 32/41/32
f 32/41/32 28/35/28 29/38/29
f 23/31/23 33/42/33 29/43/29 24/32/24
f 33/42/33 34/6/34 32/9/32 29/43/29
f 34/6/34 35/7/35 31/8/31 32/9/32
f 35/7/35 36/16/36 30/17/30 31/8/31
f 36/18/36 26/19/26 27/20/27 30/21/30
f 37/44/37 38/10/38 39/13/39 40/45/40
f 41/27/41 37/44/37 40/45/40 42/28/42
f 39/46/39 43/2/43 40/47/40
f 44/1/44 43/2/43 45/3/45
f 42/48/42 43/2/43 44/1/44
f 46/5/46 43/2/43 39/46/39
f 40/47/40 43/2/43 42/48/42
f 45/3/45 43/2/43 47/4/47
f 9/41/9 48/35/48 49/38/49
f 8/40/8 48/35/48 9/41/9
f 15/39/15 48/35/48 8/40/8
f 17/37/17 48/35/48 15/39/15
f 49/38/49 48/35/48 50/34/50
f 51/36/51 48/35/48 17/37/17
f 50/34/50 48/35/48 51/36/51
f 16/19/16 52/30/52 51/33/51 17/20/17
f 52/30/52 53/31/53 50/32/50 51/33/51
f 54/26/54 41/27/41 42/28/42 44/29/44
f 55/22/55 54/24/54 44/25/44 45/23/45
f 56/14/56 55/22/55 45/23/45 47/15/47
f 57/11/57 56/14/56 47/15/47 46/12/46
f 38/10/38 57/11/57 46/12/46 39/13/39
f 47/4/47 43/2/43 46/5/46
f 58/44/58 10/10/10 12/13/12 59/45/59
f 20/27/20 58/44/58 59/45/59 21/28/21
f 12/46/12 2/2/2 59/47/59
f 53/31/53 60/42/60 49/43/49 50/32/50
f 59/47/59 2/2/2 21/48/21
f 5/5/5 2/2/2 12/46/12
f 60/42/60 6/6/6 9/9/9 49/43/49
f 21/48/21 2/2/2 1/1/1
f 61/11/61 62/14/62 63/15/63 64/12/64
f 65/26/65 66/27/66 67/28/67 68/29/68
f 69/44/69 70/10/70 71/13/71 72/45/72
f 73/27/73 69/44/69 72/45/72 74/28/74
f 62/14/62 75/22/75 76/23/76 63/15/63
f 71/46/71 77/2/77 72/47/72
f 72/47/72 77/2/77 74/48/74
f 64/5/64 77/2/77 71/46/71
f 75/22/75 78/24/78 79/25/79 76/23/76
f 78/26/78 73/27/73 74/28/74 79/29/79
f 74/48/74 77/2/77 79/1/79
f 79/1/79 77/2/77 76/3/76
f 80/10/80 81/11/81 82/12/82 83/13/83
f 76/3/76 77/2/77 63/4/63
f 84/3/84 85/2/85 86/4/86
f 63/4/63 77/2/77 64/5/64
f 87/44/87 80/10/80 83/13/83 88/45/88
f 81/11/81 89/14/89 86/15/86 82/12/82
f 68/1/68 85/2/85 84/3/84
f 70/10/70 61/11/61 64/12/64 71/13/71
f 67/48/67 85/2/85 68/1/68
f 82/5/82 85/2/85 83/46/83
f 88/47/88 85/2/85 67/48/67
f 90/22/90 65/24/65 68/25/68 84/23/84
f 66/27/66 87/44/87 88/45/88 67/28/67
f 89/14/89 90/22/90 84/23/84 86/15/86
f 83/46/83 85/2/85 88/47/88
f 86/4/86 85/2/85 82/5/82
f 91/4/91 92/2/92 93/5/93
f 94/10/94 95/11/95 93/12/93 96/13/96
f 95/11/95 97/14/97 91/15/91 93/12/93
f 97/14/97 98/22/98 99/23/99 91/15/91
f 100/49/100 101/50/101 102/51/102
f 103/52/103 101/50/101 104/53/104
f 98/22/98 105/24/105 106/25/106 99/23/99
f 107/42/107 108/6/108 109/9/109 110/43/110
f 111/26/111 112/27/112 113/28/113 114/29/114
f 105/26/105 115/27/115 116/28/116 106/29/106
f 117/54/117 101/50/101 100/49/100
f 108/6/108 118/7/118 119/8/119 109/9/109
f 118/7/118 120/16/120 121/17/121 119/8/119
f 122/22/122 111/24/111 114/25/114 123/23/123
f 124/14/124 122/22/122 123/23/123 125/15/125
f 126/11/126 124/14/124 125/15/125 127/12/127
f 128/10/128 126/11/126 127/12/127 129/13/129
f 125/4/125 130/2/130 127/5/127
f 131/11/131 132/14/132 133/15/133 134/12/134
f 123/3/123 130/2/130 125/4/125
f 114/1/114 130/2/130 123/3/123
f 113/48/113 130/2/130 114/1/114
f 127/5/127 130/2/130 129/46/129
f 135/47/135 130/2/130 113/48/113
f 120/18/120 136/19/136 137/20/137 121/21/121
f 138/10/138 139/11/139 140/12/140 141/13/141
f 142/4/142 143/2/143 140/5/140
f 144/44/144 138/10/138 141/13/141 145/45/145
f 146/36/146 147/35/147 137/37/137
f 99/3/99 92/2/92 91/4/91
f 148/31/148 107/42/107 110/43/110 149/32/149
f 102/51/102 101/50/101 150/55/150
f 106/1/106 92/2/92 99/3/99
f 119/40/119 147/35/147 109/41/109
f 129/46/129 130/2/130 135/47/135
f 110/38/110 147/35/147 149/34/149
f 116/48/116 92/2/92 106/1/106
f 137/37/137 147/35/147 121/39/121
f 121/39/121 147/35/147 119/40/119
f 93/5/93 92/2/92 96/46/96
f 151/47/151 92/2/92 116/48/116
f 152/10/152 131/11/131 134/12/134 153/13/153
f 150/55/150 101/50/101 154/56/154
f 112/27/112 155/44/155 135/45/135 113/28/113
f 155/44/155 128/10/128 129/13/129 135/45/135
f 132/14/132 156/22/156 157/23/157 133/15/133
f 133/4/133 158/2/158 134/5/134
f 159/47/159 158/2/158 160/48/160
f 157/3/157 158/2/158 133/4/133
f 96/46/96 92/2/92 151/47/151
f 109/41/109 147/35/147 110/38/110
f 161/1/161 158/2/158 157/3/157
f 160/48/160 158/2/158 161/1/161
f 115/27/115 162/44/162 151/45/151 116/28/116
f 163/57/163 164/58/164 150/59/150 154/60/154
f 165/61/165 166/62/166 104/63/104 117/64/117
f 154/56/154 101/50/101 103/52/103
f 156/22/156 167/24/167 161/25/161 157/23/157
f 162/44/162 94/10/94 96/13/96 151/45/151
f 149/34/149 147/35/147 146/36/146
f 136/19/136 168/30/168 146/33/146 137/20/137
f 167/26/167 169/27/169 160/28/160 161/29/161
f 170/27/170 144/44/144 145/45/145 171/28/171
f 168/30/168 148/31/148 149/32/149 146/33/146
f 153/46/153 158/2/158 159/47/159
f 172/65/172 173/66/173 100/67/100 102/68/102
f 174/26/174 170/27/170 171/28/171 175/29/175
f 176/22/176 174/24/174 175/25/175 177/23/177
f 178/69/178 163/57/163 154/60/154 103/70/103
f 166/62/166 178/69/178 103/70/103 104/63/104
f 141/46/141 143/2/143 145/47/145
f 179/44/179 152/10/152 153/13/153 159/45/159
f 164/58/164 172/71/172 102/72/102 150/59/150
f 180/14/180 176/22/176 177/23/177 142/15/142
f 145/47/145 143/2/143 171/48/171
f 134/5/134 158/2/158 153/46/153
f 177/3/177 143/2/143 142/4/142
f 173/66/173 165/61/165 117/64/117 100/67/100
f 175/1/175 143/2/143 177/3/177
f 171/48/171 143/2/143 175/1/175
f 104/53/104 101/50/101 117/54/117
f 169/27/169 179/44/179 159/45/159 160/28/160
f 140/5/140 143/2/143 141/46/141
f 139/11/139 180/14/180 142/15/142 140/12/140
f 181/66/181 182/61/182 183/64/183 184/67/184
f 182/61/182 185/62/185 186/63/186 183/64/183
f 187/51/187 188/50/188 189/55/189
f 184/49/184 188/50/188 187/51/187
f 190/58/190 191/71/191 187/72/187 189/59/189
f 192/57/192 190/58/190 189/59/189 193/60/193
f 194/69/194 192/57/192 193/60/193 195/70/195
f 185/62/185 194/69/194 195/70/195 186/63/186
f 196/14/196 197/22/197 198/23/198 199/15/199
f 193/56/193 188/50/188 195/52/195
f 200/27/200 201/44/201 202/45/202 203/28/203
f 204/48/204 205/2/205 206/1/206
f 201/44/201 207/10/207 208/13/208 202/45/202
f 209/5/209 205/2/205 210/46/210
f 211/47/211 205/2/205 204/48/204
f 210/46/210 205/2/205 211/47/211
f 212/26/212 213/27/213 204/28/204 206/29/206
f 213/27/213 214/44/214 211/45/211 204/28/204
f 214/44/214 215/10/215 210/13/210 211/45/211
f 198/3/198 205/2/205 199/4/199
f 206/1/206 205/2/205 198/3/198
f 195/52/195 188/50/188 186/53/186
f 183/54/183 188/50/188 184/49/184
f 186/53/186 188/50/188 183/54/183
f 199/4/199 205/2/205 209/5/209
f 189/55/189 188/50/188 193/56/193
f 191/65/191 181/66/181 184/67/184 187/68/187
f 215/10/215 216/11/216 209/12/209 210/13/210
f 216/11/216 196/14/196 199/15/199 209/12/209
f 197/22/197 212/24/212 206/25/206 198/23/198
f 217/56/217 218/50/218 219/52/219
f 220/61/220 221/62/221 222/63/222 223/64/223
f 224/18/224 225/19/225 226/20/226 227/21/227
f 228/66/228 220/61/220 223/64/223 229/67/229
f 230/62/230 231/69/231 219/70/219 232/63/232
f 233/26/233 234/27/234 235/28/235 236/29/236
f 237/22/237 233/24/233 236/25/236 238/23/238
f 222/53/222 239/50/239 223/54/223
f 240/14/240 237/22/237 238/23/238 241/15/241
f 242/11/242 240/14/240 241/15/241 243/12/243
f 231/69/231 244/57/244 217/60/217 219/70/219
f 244/57/244 245/58/245 246/59/246 217/60/217
f 246/55/246 218/50/218 217/56/217
f 247/7/247 224/16/224 227/17/227 248/8/248
f 249/6/249 247/7/247 248/8/248 250/9/250
f 245/58/245 251/71/251 252/72/252 246/59/246
f 223/54/223 239/50/239 229/49/229
f 253/52/253 239/50/239 222/53/222
f 229/49/229 239/50/239 254/51/254
f 254/51/254 239/50/239 255/55/255
f 255/55/255 239/50/239 256/56/256
f 256/56/256 239/50/239 253/52/253
f 221/62/221 257/69/257 253/70/253 222/63/222
f 257/69/257 258/57/258 256/60/256 253/70/253
f 258/57/258 259/58/259 255/59/255 256/60/256
f 259/58/259 260/71/260 254/72/254 255/59/255
f 260/65/260 228/66/228 229/67/229 254/68/254
f 261/61/261 230/62/230 232/63/232 262/64/262
f 263/42/263 249/6/249 250/9/250 264/43/264
f 265/66/265 261/61/261 262/64/262 266/67/266
f 267/31/267 263/42/263 264/43/264 268/32/268
f 250/41/250 269/35/269 264/38/264
f 270/30/270 267/31/267 268/32/268 271/33/271
f 232/53/232 218/50/218 262/54/262
f 272/10/272 242/11/242 243/12/243 273/13/273
f 241/4/241 274/2/274 243/5/243
f 238/3/238 274/2/274 241/4/241
f 262/54/262 218/50/218 266/49/266
f 236/1/236 274/2/274 238/3/238
f 235/48/235 274/2/274 236/1/236
f 243/5/243 274/2/274 273/46/273
f 275/11/275 276/14/276 277/15/277 278/12/278
f 279/47/279 274/2/274 235/48/235
f 219/52/219 218/50/218 232/53/232
f 273/46/273 274/2/274 279/47/279
f 278/5/278 280/2/280 208/46/208
f 203/48/203 280/2/280 281/1/281
f 281/1/281 280/2/280 282/3/282
f 283/26/283 200/27/200 203/28/203 281/29/281
f 202/47/202 280/2/280 203/48/203
f 248/40/248 269/35/269 250/41/250
f 227/39/227 269/35/269 248/40/248
f 208/46/208 280/2/280 202/47/202
f 226/37/226 269/35/269 227/39/227
f 264/38/264 269/35/269 268/34/268
f 271/36/271 269/35/269 226/37/226
f 268/34/268 269/35/269 271/36/271
f 234/27/234 284/44/284 279/45/279 235/28/235
f 285/22/285 283/24/283 281/25/281 282/23/282
f 225/19/225 270/30/270 271/33/271 226/20/226
f 252/51/252 218/50/218 246/55/246
f 282/3/282 280/2/280 277/4/277
f 266/49/266 218/50/218 252/51/252
f 277/4/277 280/2/280 278/5/278
f 276/14/276 285/22/285 282/23/282 277/15/277
f 284/44/284 272/10/272 273/13/273 279/45/279
f 207/10/207 275/11/275 278/12/278 208/13/208
f 251/65/251 265/66/265 266/67/266 252/68/252
f 286/48/286 287/2/287 288/1/288
f 289/5/289 287/2/287 290/46/290
f 291/10/291 292/11/292 293/12/293 294/13/294
f 292/11/292 295/14/295 296/15/296 293/12/293
f 297/11/297 298/14/298 299/15/299 300/12/300
f 301/18/301 302/19/302 303/20/303 304/21/304
f 296/4/296 305/2/305 293/5/293
f 306/7/306 301/16/301 304/17/304 307/8/307
f 308/6/308 306/7/306 307/8/307 309/9/309
f 310/42/310 308/6/308 309/9/309 311/43/311
f 312/3/312 305/2/305 296/4/296
f 313/31/313 310/42/310 311/43/311 314/32/314
f 298/14/298 315/22/315 316/23/316 299/15/299
f 315/22/315 317/24/317 318/25/318 316/23/316
f 317/26/317 319/27/319 320/28/320 318/29/318
f 321/30/321 322/31/322 323/32/323 324/33/324
f 325/19/325 321/30/321 324/33/324 326/20/326
f 323/34/323 327/35/327 324/36/324
f 324/36/324 327/35/327 326/37/326
f 328/38/328 327/35/327 323/34/323
f 326/37/326 327/35/327 329/39/329
f 329/39/329 327/35/327 330/40/330
f 330/40/330 327/35/327 331/41/331
f 331/41/331 327/35/327 328/38/328
f 322/31/322 332/42/332 328/43/328 323/32/323
f 332/42/332 333/6/333 331/9/331 328/43/328
f 333/6/333 334/7/334 330/8/330 331/9/331
f 334/7/334 335/16/335 329/17/329 330/8/330
f 335/18/335 325/19/325 326/20/326 329/21/329
f 336/30/336 313/31/313 314/32/314 337/33/337
f 302/19/302 336/30/336 337/33/337 303/20/303
f 309/41/309 338/35/338 311/38/311
f 288/1/288 287/2/287 339/3/339
f 307/40/307 338/35/338 309/41/309
f 304/39/304 338/35/338 307/40/307
f 303/37/303 338/35/338 304/39/304
f 311/38/311 338/35/338 314/34/314
f 337/36/337 338/35/338 303/37/303
f 314/34/314 338/35/338 337/36/337
f 339/3/339 287/2/287 340/4/340
f 340/4/340 287/2/287 289/5/289
f 341/10/341 342/11/342 289/12/289 290/13/290
f 342/11/342 343/14/343 340/15/340 289/12/289
f 343/14/343 344/22/344 339/23/339 340/15/340
f 345/47/345 287/2/287 286/48/286
f 290/46/290 287/2/287 345/47/345
f 346/27/346 347/44/347 345/45/345 286/28/286
f 347/44/347 341/10/341 290/13/290 345/45/345
f 348/18/348 349/19/349 350/20/350 351/21/351
f 352/7/352 348/16/348 351/17/351 353/8/353
f 354/44/354 355/10/355 356/13/356 357/45/357
f 319/27/319 354/44/354 357/45/357 320/28/320
f 356/46/356 358/2/358 357/47/357
f 357/47/357 358/2/358 320/48/320
f 300/5/300 358/2/358 356/46/356
f 320/48/320 358/2/358 318/1/318
f 318/1/318 358/2/358 316/3/316
f 316/3/316 358/2/358 299/4/299
f 299/4/299 358/2/358 300/5/300
f 355/10/355 297/11/297 300/12/300 356/13/356
f 344/22/344 359/24/359 288/25/288 339/23/339
f 359/26/359 346/27/346 286/28/286 288/29/288
f 360/44/360 361/10/361 362/13/362 363/45/363
f 364/27/364 360/44/360 363/45/363 365/28/365
f 362/46/362 366/2/366 363/47/363
f 363/47/363 366/2/366 365/48/365
f 367/5/367 366/2/366 362/46/362
f 365/48/365 366/2/366 368/1/368
f 368/1/368 366/2/366 369/3/369
f 369/3/369 366/2/366 370/4/370
f 371/6/371 352/7/352 353/8/353 372/9/372
f 370/4/370 366/2/366 367/5/367
f 361/10/361 373/11/373 367/12/367 362/13/362
f 373/11/373 374/14/374 370/15/370 367/12/367
f 374/14/374 375/22/375 369/23/369 370/15/370
f 375/22/375 376/24/376 368/25/368 369/23/369
f 376/26/376 364/27/364 365/28/365 368/29/368
f 377/44/377 291/10/291 294/13/294 378/45/378
f 379/27/379 377/44/377 378/45/378 380/28/380
f 294/46/294 305/2/305 378/47/378
f 378/47/378 305/2/305 380/48/380
f 293/5/293 305/2/305 294/46/294
f 380/48/380 305/2/305 381/1/381
f 381/1/381 305/2/305 312/3/312
f 382/42/382 371/6/371 372/9/372 383/43/383
f 384/31/384 382/42/382 383/43/383 385/32/385
f 372/41/372 386/35/386 383/38/383
f 353/40/353 386/35/386 372/41/372
f 351/39/351 386/35/386 353/40/353
f 350/37/350 386/35/386 351/39/351
f 383/38/383 386/35/386 385/34/385
f 387/36/387 386/35/386 350/37/350
f 385/34/385 386/35/386 387/36/387
f 349/19/349 388/30/388 387/33/387 350/20/350
f 388/30/388 384/31/384 385/32/385 387/33/387
f 389/26/389 379/27/379 380/28/380 381/29/381
f 390/22/390 389/24/389 381/25/381 312/23/312
f 295/14/295 390/22/390 312/23/312 296/15/296
f 391/19/391 392/30/392 393/33/393 394/20/394
f 395/34/395 396/35/396 393/36/393
f 393/36/393 396/35/396 394/37/394
f 397/54/397 398/50/398 399/49/399
f 400/52/400 398/50/398 401/53/401
f 399/49/399 398/50/398 402/51/402
f 403/38/403 404/35/404 405/34/405
f 402/51/402 398/50/398 406/55/406
f 407/6/407 408/7/408 409/8/409 410/9/410
f 411/42/411 407/6/407 410/9/410 412/43/412
f 413/31/413 411/42/411 412/43/412 414/32/414
f 410/41/410 415/35/415 412/38/412
f 409/40/409 415/35/415 410/41/410
f 416/39/416 415/35/415 409/40/409
f 417/37/417 415/35/415 416/39/416
f 412/38/412 415/35/415 414/34/414
f 418/36/418 415/35/415 417/37/417
f 414/34/414 415/35/415 418/36/418
f 419/19/419 420/30/420 418/33/418 417/20/417
f 401/53/401 398/50/398 397/54/397
f 420/30/420 413/31/413 414/32/414 418/33/418
f 421/66/421 422/61/422 397/64/397 399/67/399
f 422/61/422 423/62/423 401/63/401 397/64/397
f 424/65/424 421/66/421 399/67/399 402/68/402
f 425/58/425 424/71/424 402/72/402 406/59/406
f 426/57/426 425/58/425 406/59/406 427/60/427
f 428/69/428 426/57/426 427/60/427 400/70/400
f 423/62/423 428/69/428 400/70/400 401/63/401
f 427/56/427 398/50/398 400/52/400
f 429/38/429 396/35/396 395/34/395
f 394/37/394 396/35/396 430/39/430
f 430/39/430 396/35/396 431/40/431
f 431/40/431 396/35/396 432/41/432
f 433/19/433 434/30/434 435/33/435 436/20/436
f 434/30/434 437/31/437 438/32/438 435/33/435
f 438/34/438 439/35/439 435/36/435
f 435/36/435 439/35/439 436/37/436
f 440/38/440 439/35/439 438/34/438
f 432/41/432 396/35/396 429/38/429
f 436/37/436 439/35/439 441/39/441
f 441/39/441 439/35/439 442/40/442
f 442/40/442 439/35/439 443/41/443
f 443/41/443 439/35/439 440/38/440
f 437/31/437 444/42/444 440/43/440 438/32/438
f 444/42/444 445/6/445 443/9/443 440/43/440
f 446/4/446 447/2/447 448/5/448
f 449/10/449 450/11/450 448/12/448 451/13/451
f 450/11/450 452/14/452 446/15/446 448/12/448
f 452/14/452 453/22/453 454/23/454 446/15/446
f 453/22/453 455/24/455 456/25/456 454/23/454
f 455/26/455 457/27/457 458/28/458 456/29/456
f 459/18/459 460/19/460 461/20/461 462/21/462
f 463/7/463 459/16/459 462/17/462 464/8/464
f 465/6/465 463/7/463 464/8/464 466/9/466
f 467/26/467 468/27/468 469/28/469 470/29/470
f 471/31/471 472/42/472 403/43/403 405/32/405
f 473/22/473 467/24/467 470/25/470 474/23/474
f 462/39/462 404/35/404 464/40/464
f 475/14/475 473/22/473 474/23/474 476/15/476
f 477/11/477 475/14/475 476/15/476 478/12/478
f 454/3/454 447/2/447 446/4/446
f 456/1/456 447/2/447 454/3/454
f 461/37/461 404/35/404 462/39/462
f 479/10/479 477/11/477 478/12/478 480/13/480
f 476/4/476 481/2/481 478/5/478
f 474/3/474 481/2/481 476/4/476
f 482/36/482 404/35/404 461/37/461
f 458/48/458 447/2/447 456/1/456
f 470/1/470 481/2/481 474/3/474
f 469/48/469 481/2/481 470/1/470
f 448/5/448 447/2/447 451/46/451
f 405/34/405 404/35/404 482/36/482
f 445/6/445 483/7/483 442/8/442 443/9/443
f 483/7/483 484/16/484 441/17/441 442/8/442
f 484/18/484 433/19/433 436/20/436 441/21/441
f 485/47/485 447/2/447 458/48/458
f 451/46/451 447/2/447 485/47/485
f 457/27/457 486/44/486 485/45/485 458/28/458
f 486/44/486 449/10/449 451/13/451 485/45/485
f 392/30/392 487/31/487 395/32/395 393/33/393
f 488/18/488 419/19/419 417/20/417 416/21/416
f 408/7/408 488/16/488 416/17/416 409/8/409
f 478/5/478 481/2/481 480/46/480
f 489/47/489 481/2/481 469/48/469
f 480/46/480 481/2/481 489/47/489
f 468/27/468 490/44/490 489/45/489 469/28/469
f 490/44/490 479/10/479 480/13/480 489/45/489
f 472/42/472 465/6/465 466/9/466 403/43/403
f 466/41/466 404/35/404 403/38/403
f 464/40/464 404/35/404 466/41/466
f 406/55/406 398/50/398 427/56/427
f 491/26/491 492/27/492 493/28/493 494/29/494
f 495/22/495 491/24/491 494/25/494 496/23/496
f 497/14/497 495/22/495 496/23/496 498/15/498
f 499/11/499 497/14/497 498/15/498 500/12/500
f 501/10/501 499/11/499 500/12/500 502/13/502
f 498/4/498 503/2/503 500/5/500
f 496/3/496 503/2/503 498/4/498
f 494/1/494 503/2/503 496/3/496
f 493/48/493 503/2/503 494/1/494
f 500/5/500 503/2/503 502/46/502
f 504/47/504 503/2/503 493/48/493
f 502/46/502 503/2/503 504/47/504
f 492/27/492 505/44/505 504/45/504 493/28/493
f 505/44/505 501/10/501 502/13/502 504/45/504
f 506/18/506 391/19/391 394/20/394 430/21/430
f 507/7/507 506/16/506 430/17/430 431/8/431
f 508/6/508 507/7/507 431/8/431 432/9/432
f 509/42/509 508/6/508 432/9/432 429/43/429
f 487/31/487 509/42/509 429/43/429 395/32/395
f 460/19/460 510/30/510 482/33/482 461/20/461
f 510/30/510 471/31/471 405/32/405 482/33/482
f 511/26/511 512/27/512 513/28/513 514/29/514
f 515/41/515 516/35/516 517/38/517
f 518/40/518 516/35/516 515/41/515
f 519/39/519 516/35/516 518/40/518
f 520/37/520 516/35/516 519/39/519
f 517/38/517 516/35/516 521/34/521
f 522/36/522 516/35/516 520/37/520
f 521/34/521 516/35/516 522/36/522
f 523/19/523 524/30/524 522/33/522 520/20/520
f 525/30/525 526/31/526 527/32/527 528/33/528
f 529/19/529 525/30/525 528/33/528 530/20/530
f 527/34/527 531/35/531 528/36/528
f 528/36/528 531/35/531 530/37/530
f 532/22/532 511/24/511 514/25/514 533/23/533
f 534/38/534 531/35/531 527/34/527
f 535/14/535 532/22/532 533/23/533 536/15/536
f 537/11/537 535/14/535 536/15/536 538/12/538
f 539/10/539 537/11/537 538/12/538 540/13/540
f 541/44/541 539/10/539 540/13/540 542/45/542
f 512/27/512 541/44/541 542/45/542 513/28/513
f 540/46/540 543/2/543 542/47/542
f 544/31/544 545/42/545 517/43/517 521/32/521
f 545/42/545 546/6/546 515/9/515 517/43/517
f 547/51/547 548/50/548 549/55/549
f 550/49/550 548/50/548 547/51/547
f 551/52/551 548/50/548 552/53/552
f 553/54/553 548/50/548 550/49/550
f 552/53/552 548/50/548 553/54/553
f 554/66/554 555/61/555 553/64/553 550/67/550
f 555/61/555 556/62/556 552/63/552 553/64/553
f 557/56/557 548/50/548 551/52/551
f 556/62/556 558/69/558 551/70/551 552/63/552
f 524/30/524 544/31/544 521/32/521 522/33/522
f 559/26/559 560/27/560 561/28/561 562/29/562
f 563/22/563 559/24/559 562/25/562 564/23/564
f 565/14/565 563/22/563 564/23/564 566/15/566
f 567/11/567 565/14/565 566/15/566 568/12/568
f 569/10/569 567/11/567 568/12/568 570/13/570
f 566/4/566 571/2/571 568/5/568
f 564/3/564 571/2/571 566/4/566
f 558/69/558 572/57/572 557/60/557 551/70/551
f 572/57/572 573/58/573 549/59/549 557/60/557
f 573/58/573 574/71/574 547/72/547 549/59/549
f 574/65/574 554/66/554 550/67/550 547/68/547
f 562/1/562 571/2/571 564/3/564
f 561/48/561 571/2/571 562/1/562
f 568/5/568 571/2/571 570/46/570
f 575/18/575 576/19/576 577/20/577 578/21/578
f 579/47/579 571/2/571 561/48/561
f 580/7/580 575/16/575 578/17/578 581/8/581
f 582/6/582 580/7/580 581/8/581 583/9/583
f 570/46/570 571/2/571 579/47/579
f 584/42/584 582/6/582 583/9/583 585/43/585
f 586/31/586 584/42/584 585/43/585 587/32/587
f 583/41/583 588/35/588 585/38/585
f 581/40/581 588/35/588 583/41/583
f 578/39/578 588/35/588 581/40/581
f 577/37/577 588/35/588 578/39/578
f 585/38/585 588/35/588 587/34/587
f 589/36/589 588/35/588 577/37/577
f 587/34/587 588/35/588 589/36/589
f 576/19/576 590/30/590 589/33/589 577/20/577
f 590/30/590 586/31/586 587/32/587 589/33/589
f 591/65/591 592/66/592 593/67/593 594/68/594
f 595/58/595 591/71/591 594/72/594 596/59/596
f 597/57/597 595/58/595 596/59/596 598/60/598
f 599/69/599 597/57/597 598/60/598 600/70/600
f 601/62/601 599/69/599 600/70/600 602/63/602
f 598/56/598 603/50/603 600/52/600
f 560/27/560 604/44/604 579/45/579 561/28/561
f 596/55/596 603/50/603 598/56/598
f 594/51/594 603/50/603 596/55/596
f 593/49/593 603/50/603 594/51/594
f 604/44/604 569/10/569 570/13/570 579/45/579
f 605/65/605 606/66/606 607/67/607 608/68/608
f 549/55/549 548/50/548 557/56/557
f 538/5/538 543/2/543 540/46/540
f 609/58/609 605/71/605 608/72/608 610/59/610
f 611/57/611 609/58/609 610/59/610 612/60/612
f 613/69/613 611/57/611 612/60/612 614/70/614
f 615/62/615 613/69/613 614/70/614 616/63/616
f 612/56/612 617/50/617 614/52/614
f 610/55/610 617/50/617 612/56/612
f 608/51/608 617/50/617 610/55/610
f 607/49/607 617/50/617 608/51/608
f 614/52/614 617/50/617 616/53/616
f 618/54/618 617/50/617 607/49/607
f 616/53/616 617/50/617 618/54/618
f 606/66/606 619/61/619 618/64/618 607/67/607
f 619/61/619 615/62/615 616/63/616 618/64/618
f 620/18/620 529/19/529 530/20/530 621/21/621
f 622/7/622 620/16/620 621/17/621 623/8/623
f 624/6/624 622/7/622 623/8/623 625/9/625
f 626/42/626 624/6/624 625/9/625 534/43/534
f 526/31/526 626/42/626 534/43/534 527/32/527
f 625/41/625 531/35/531 534/38/534
f 600/52/600 603/50/603 602/53/602
f 627/54/627 603/50/603 593/49/593
f 623/40/623 531/35/531 625/41/625
f 621/39/621 531/35/531 623/40/623
f 530/37/530 531/35/531 621/39/621
f 602/53/602 603/50/603 627/54/627
f 592/66/592 628/61/628 627/64/627 593/67/593
f 628/61/628 601/62/601 602/63/602 627/64/627
f 536/4/536 543/2/543 538/5/538
f 533/3/533 543/2/543 536/4/536
f 514/1/514 543/2/543 533/3/533
f 513/48/513 543/2/543 514/1/514
f 542/47/542 543/2/543 513/48/513
f 629/18/629 523/19/523 520/20/520 519/21/519
f 630/7/630 629/16/629 519/17/519 518/8/518
f 546/6/546 630/7/630 518/8/518 515/9/515