o Background_Tree_Atlas.018
usemtl Wood_Fence
v 65.876862 154.362183 -36.881145
v 65.785431 155.004562 -36.961582
v 65.539093 154.993698 -36.766781
v 65.630508 154.351349 -36.686344
v 62.00312 154.242813 -40.257267
v 61.821465 154.210449 -40.378376
v 61.762108 154.182205 -40.363873
v 62.016235 154.227478 -40.194469
v 65.345825 154.930832 -37.001034
v 65.43631 154.288269 -36.921726
v 65.589218 154.940811 -37.199535
v 65.679703 154.298218 -37.120235
v 65.543167 155.008255 -36.830967
v 65.719177 155.015945 -36.970753
v 65.57962 154.970596 -37.139942
v 65.405121 154.963348 -36.998257
v 65.417984 154.847275 -37.039433
v 65.541214 154.852341 -37.139957
v 64.077133 154.48143 -38.77187
v 63.966118 154.479431 -38.657841
v 65.595062 154.469879 -37.092762
v 64.118919 154.095779 -38.737545
v 65.471817 154.464844 -36.992245
v 64.00798 154.093796 -38.623516
v 57.492821 152.780334 -42.648327
v 57.405411 153.4272 -42.715092
v 57.705849 153.477585 -42.635197
v 57.792191 152.830536 -42.568714
v 55.198769 153.090195 -43.104687
v 55.168205 153.109238 -42.882694
v 55.208931 153.09758 -42.831844
v 55.252419 153.071075 -43.141949
v 68.16188 155.814713 -32.657856
v 68.062241 155.782669 -32.852299
v 68.005386 155.751083 -32.868671
v 68.144867 155.795944 -32.596432
v 68.362167 155.829636 -32.759029
v 68.425034 155.816895 -32.73724
v 67.027267 154.76474 -34.677837
v 66.943314 155.410233 -34.748135
v 66.776154 155.359268 -35.004421
v 66.860107 154.713898 -34.934139
v 67.038879 155.374893 -35.176167
v 67.122772 154.729507 -35.105885
v 66.953979 155.427414 -34.811398
v 67.143295 155.438965 -34.932346
v 67.022873 155.402283 -35.116955
v 66.834702 155.391037 -34.994373
v 61.949532 154.207764 -40.563213
v 61.940315 154.178314 -40.622669
v 61.816139 154.094742 -40.419514
v 61.906364 154.092773 -40.550571
v 60.021111 153.76619 -41.656239
v 59.950645 153.771744 -41.513676
v 61.951294 153.707275 -40.513889
v 60.068298 153.38092 -41.618214
v 61.861 153.709244 -40.382839
v 59.997833 153.386475 -41.475651
v 63.961037 153.882523 -38.987926
v 63.890892 154.530731 -39.045498
v 64.121872 154.569031 -38.83514
v 64.192085 153.92099 -38.77747
v 63.902687 154.565094 -38.609966
v 63.9729 153.917084 -38.552288
v 63.67585 154.527603 -38.816425
v 63.745941 153.87941 -38.758854
v 63.898735 154.58255 -38.673702
v 64.055168 154.585281 -38.835255
v 63.891014 154.558075 -38.984768
v 63.736656 154.555756 -38.821232
v 63.738289 154.441757 -38.865276
v 63.847214 154.443329 -38.981274
v 62.164322 154.138748 -40.378483
v 62.071518 154.140228 -40.249256
v 63.888939 154.057587 -38.94701
v 62.209 153.753204 -40.341961
v 63.780014 154.056015 -38.831013
v 62.116127 153.7547 -40.212734
v 66.852203 155.276871 -35.037426
v 66.985229 155.284775 -35.124393
v 65.736862 154.915909 -36.90276
v 65.612122 154.9104 -36.804119
v 67.035172 154.900711 -35.082577
v 65.791199 154.533585 -36.8549
v 66.902161 154.892807 -34.995602
v 65.666458 154.528091 -36.756252
v 68.26152 155.797272 -32.955463
v 68.283539 155.771393 -33.013378
v 68.086639 155.10434 -32.803196
v 68.364868 155.124649 -32.947903
v 68.225571 155.149002 -32.532177
v 68.084885 155.669724 -32.895641
v 68.225754 155.680023 -32.968922
v 67.1539 155.336182 -34.865688
v 67.019867 155.327972 -34.780346
v 68.274124 155.295166 -32.929958
v 67.203842 154.952057 -34.823864
v 68.505676 155.169952 -32.672985
v 69.134018 155.642914 -30.571499
v 69.082138 156.026276 -30.619366
v 68.224808 155.714722 -32.622601
v 68.272812 155.329773 -32.58437
v 69.282166 155.655914 -30.628101
v 68.414688 155.340378 -32.655674
v 69.230286 156.039276 -30.675968
v 68.366684 155.725327 -32.693905
v 67.208054 155.426453 -34.916676
v 67.292007 154.78093 -34.846386
v 68.13327 155.284897 -32.856678
v 67.069809 154.943848 -34.738522
v 59.779976 153.834656 -41.806278
v 59.981705 153.867126 -41.714863
v 60.04483 153.849854 -41.734264
v 59.761024 153.804153 -41.862926
v 59.88269 153.875076 -41.513088
v 59.905655 153.860825 -41.452724
v 59.684029 153.843124 -41.603069
v 59.627747 153.816132 -41.578587
v 59.671295 153.726807 -41.640202
v 59.738747 153.720749 -41.784191
v 57.694992 153.396103 -42.552212
v 57.648994 153.405701 -42.400158
v 59.786247 153.33548 -41.746052
v 57.746384 153.011169 -42.512653
v 59.718727 153.341537 -41.602062
v 57.700386 153.020767 -42.3606
v 62.015739 153.530487 -40.561031
v 62.199585 154.224533 -40.449657
v 62.274574 153.57663 -40.388287
v 62.091225 153.579575 -40.133099
v 61.837532 153.534378 -40.302235
v 55.341774 152.425186 -43.074688
v 55.298286 152.451691 -42.764584
v 62.133766 154.240616 -40.440273
v 57.615051 153.496536 -42.334927
v 57.701454 152.849472 -42.268444
v 57.320641 153.447113 -42.413151
v 57.408043 152.800247 -42.346386
v 57.582611 153.509003 -42.391178
v 57.646927 153.495346 -42.606236
v 57.433403 153.459518 -42.663013
v 57.372154 153.473679 -42.447094
v 57.353264 153.356049 -42.478756
v 57.396187 153.345963 -42.631657
v 55.253609 152.99144 -43.056431
v 55.23159 153.004868 -42.899403
v 57.448204 152.961151 -42.59193
v 55.306816 152.607162 -43.016407
v 57.40522 152.971237 -42.439022
v 55.284798 152.620575 -42.859379
v 59.840775 153.156601 -41.798832
v 60.124207 153.202347 -41.670361
v 59.985031 153.213303 -41.388821
v 59.707497 153.168579 -41.514492
v 40.400475 150.903931 -40.263645
v 40.468056 150.522675 -40.226116
v 38.619255 150.266281 -39.226429
v 38.596794 150.648056 -39.231785
v 45.168175 151.664734 -41.789799
v 45.11013 151.632935 -42.004765
v 45.059685 151.597504 -42.032024
v 45.141136 151.642014 -41.731747
v 54.978584 153.056259 -43.127094
v 54.942696 153.023361 -43.173466
v 52.702232 152.742889 -43.020634
v 52.703102 152.719604 -43.244312
v 52.482353 152.687393 -43.23505
v 52.483681 152.710999 -43.01141
v 40.409889 151.011032 -40.322514
v 40.613762 151.033142 -40.407291
v 40.642754 151.008621 -40.462734
v 40.356621 150.977646 -40.343098
v 45.13517 151.545059 -41.797062
v 45.093941 151.522537 -41.949123
v 43.0158 151.194824 -41.275135
v 43.065117 151.219009 -41.125675
v 40.459404 150.928741 -40.117893
v 38.654396 150.673721 -39.094608
v 50.080559 151.694351 -42.704899
v 49.980667 152.338318 -42.771954
v 49.945717 152.300613 -43.081959
v 50.045609 151.656647 -43.014904
v 45.156822 151.141205 -41.909946
v 43.08094 150.815582 -41.236675
v 42.84005 150.802063 -40.984005
v 42.774605 151.181427 -41.022358
v 40.743904 150.959579 -40.236858
v 40.811165 150.578568 -40.199223
v 42.945274 151.29213 -41.301952
v 43.015236 151.32634 -41.090809
v 43.074532 151.316757 -41.061459
v 42.977089 151.269012 -41.356609
v 42.737206 151.265259 -41.22797
v 42.684868 151.231262 -41.252689
v 42.808235 151.299576 -41.017216
v 42.894447 150.642273 -40.893856
v 42.784447 151.279221 -40.958309
v 42.794868 150.594467 -41.188236
v 43.184029 150.679901 -40.99683
v 43.086586 150.632339 -41.291981
v 40.492912 151.046066 -40.116444
v 40.472893 151.026611 -40.055279
v 40.695763 151.068085 -40.200794
v 40.757011 151.057434 -40.174061
v 45.165413 150.957016 -41.96619
v 45.357674 151.646347 -42.118015
v 45.462837 151.005234 -42.052029
v 45.436668 151.690384 -41.817043
v 45.541832 151.04924 -41.751057
v 45.246864 151.001495 -41.665905
v 45.379005 151.69928 -41.850849
v 45.322212 151.667725 -42.066166
v 54.994331 152.404922 -42.795429
v 54.904671 153.050659 -42.86272
v 55.032417 152.377625 -43.106174
v 45.198036 151.163727 -41.757885
v 43.130257 150.839706 -41.087215
v 47.58741 151.308304 -42.577015
v 47.484566 151.951843 -42.643597
v 47.788139 151.993332 -42.708508
v 47.891106 151.349808 -42.641933
v 47.84549 152.034195 -42.402264
v 47.948456 151.390656 -42.33569
v 47.544807 151.993103 -42.337963
v 47.647705 151.349548 -42.271374
v 40.470131 150.337112 -40.280041
v 40.755821 150.368591 -40.399471
v 40.870079 150.417389 -40.110806
v 52.511848 152.209259 -42.990772
v 52.455315 152.592865 -43.030918
v 50.291267 152.285355 -42.871555
v 50.350311 151.9021 -42.8316
v 40.586464 150.386078 -39.992222
v 54.950783 153.075714 -42.904766
v 52.510597 152.192505 -43.149006
v 50.334503 151.88327 -42.988811
v 38.60865 150.78125 -39.055775
v 38.401085 150.753906 -38.965427
v 38.375298 150.733582 -38.909649
v 38.665504 150.771896 -39.036747
v 38.527336 150.744934 -39.249355
v 38.551613 150.721207 -39.307743
v 38.317635 150.717468 -39.15926
v 38.257713 150.682632 -39.180859
v 52.454063 152.576111 -43.189159
v 50.275459 152.266525 -43.028767
v 52.440758 152.654037 -43.275288
v 52.44326 152.687119 -42.962803
v 52.74929 152.73175 -42.975735
v 52.751167 152.69931 -43.288288
v 40.526909 150.54747 -40.080364
v 38.679054 150.291962 -39.087811
v 54.926003 152.957764 -42.930431
v 54.945274 152.943939 -43.087788
v 52.763344 152.621231 -43.202145
v 52.762398 152.63765 -43.043865
v 54.998665 152.559723 -43.047741
v 52.819557 152.237595 -43.161983
v 54.979408 152.573547 -42.890385
v 52.818626 152.254013 -43.003712
v 52.538261 152.04245 -42.895336
v 52.535759 152.009369 -43.207821
v 52.843849 152.087036 -42.908253
v 52.845726 152.054596 -43.220814
v 50.044792 151.859833 -42.79961
v 49.985374 152.243011 -42.839512
v 47.845116 151.938171 -42.46896
v 47.906357 151.555237 -42.42934
v 50.0271 151.840744 -42.956593
v 47.877304 151.534561 -42.584423
v 49.967674 152.223923 -42.996494
v 47.816063 151.91748 -42.624035
v 47.575935 152.015274 -42.392956
v 47.533134 151.985779 -42.611752
v 47.543678 151.896973 -42.404499
v 47.513115 151.876083 -42.559277
v 45.391182 151.571259 -42.034924
v 45.431206 151.593552 -41.882511
v 47.574364 151.493149 -42.519657
v 45.453804 151.18959 -41.995655
v 47.604851 151.514038 -42.36488
v 45.493767 151.211899 -41.84325
v 47.790581 152.044601 -42.438839
v 50.384888 151.73645 -42.736744
v 50.285744 152.380524 -42.80389
v 50.353699 151.69928 -43.047215
v 50.254501 152.343353 -43.114361
v 42.724159 151.157135 -41.171429
v 40.686043 150.934845 -40.383038
v 42.789604 150.777817 -41.133076
v 40.753304 150.553848 -40.345402
v 38.422417 150.092102 -38.895191
v 38.299431 150.041138 -39.169941
v 38.706856 150.130341 -39.025433
v 38.586388 150.079636 -39.300709
v 47.749237 152.01532 -42.657948
v 50.211266 152.364655 -43.06789
v 50.233978 152.391312 -42.845745
v 50.016182 152.361176 -42.822933
v 49.991524 152.334244 -43.044842
v 36.002876 149.924072 -38.016857
v 36.077415 149.950943 -37.87888
v 34.219017 149.682907 -36.752827
v 34.137566 149.655045 -36.886639
v 36.004128 150.332245 -37.91354
v 34.142525 150.063736 -36.785572
v 32.253441 149.218384 -35.277233
v 32.117973 149.857361 -35.32748
v 31.867865 149.819046 -35.148434
v 32.00428 149.180222 -35.098881
v 36.271873 149.774384 -38.216015
v 36.14933 150.415268 -38.274624
v 36.294716 150.468079 -38.001087
v 36.417259 149.827209 -37.942478
v 33.884315 150.02623 -36.617046
v 33.801872 149.998215 -36.750217
v 32.002708 149.72876 -35.511448
v 32.092369 149.757858 -35.383251
v 38.39167 150.253632 -38.958782
v 38.363243 150.635345 -38.967648
v 36.2752 150.369461 -38.060772
v 36.348106 149.988113 -38.025898
v 28.505896 148.605301 -32.07185
v 28.35549 149.241806 -32.109119
v 28.139578 149.203339 -31.890484
v 28.290869 148.566986 -31.854069
v 36.147194 149.790131 -37.795818
v 36.02401 150.430908 -37.854069
v 35.876747 150.377823 -38.126545
v 35.999916 149.737045 -38.068295
v 29.950598 149.487305 -33.609798
v 30.131124 149.514267 -33.734982
v 30.142981 149.489197 -33.795261
v 29.889608 149.451324 -33.618954
v 30.09844 149.032333 -33.47089
v 30.04598 149.411819 -33.450237
v 28.32305 149.14119 -32.159046
v 28.412588 148.762436 -32.136868
v 33.800423 150.105301 -36.811222
v 33.985344 150.132172 -36.931942
v 34.004173 150.107758 -36.991947
v 33.744392 150.070007 -36.822407
v 30.256491 149.557419 -33.584339
v 30.078665 149.53064 -33.457951
v 30.069693 149.511932 -33.405834
v 30.318121 149.549438 -33.584019
v 34.100731 150.171585 -36.742954
v 33.916756 150.144852 -36.62289
v 34.036613 149.485428 -36.504902
v 33.90728 150.125336 -36.559422
v 33.873711 149.430115 -36.767879
v 28.293188 148.541992 -32.294292
v 28.142782 149.178513 -32.331562
v 28.288351 149.24913 -32.111263
v 28.13587 149.203796 -32.270229
v 27.98052 149.176132 -32.113247
v 28.134054 149.221664 -31.955387
v 27.924734 149.139664 -32.11076
v 32.052147 149.865646 -35.339443
v 31.925207 149.824509 -35.520466
v 31.745687 149.797012 -35.391933
v 31.873693 149.838318 -35.211674
v 31.940893 149.799911 -35.580639
v 31.688772 149.761276 -35.400097
v 31.841879 149.719482 -35.20393
v 31.75115 149.690231 -35.331364
v 30.206991 149.418884 -33.734501
v 30.295584 149.449387 -33.62772
v 31.832342 149.310104 -35.301876
v 30.252539 149.039291 -33.763706
v 31.92301 149.339355 -35.174442
v 30.343588 149.069794 -33.653339
v 34.132744 149.467743 -36.936924
v 28.106756 149.102646 -31.939983
v 27.997961 149.070404 -32.051533
v 26.532171 148.80246 -30.430069
v 26.646749 148.835754 -30.324799
v 34.165108 150.162796 -36.727695
v 34.293617 149.522781 -36.672672
v 28.087942 148.691742 -32.029865
v 26.624166 148.424164 -30.410534
v 30.005514 149.001633 -33.581257
v 28.304861 148.730377 -32.249508
v 36.126671 150.439438 -38.216496
v 36.230888 150.477264 -38.020847
v 35.932594 150.412781 -38.111057
v 31.825125 149.122452 -35.350536
v 32.076378 149.160934 -35.530392
v 28.07601 148.503296 -32.074352
v 36.037758 150.450745 -37.915951
v 29.95487 149.381119 -33.558018
v 28.215322 149.109131 -32.271687
v 33.878792 149.617447 -36.717777
v 33.961311 149.645447 -36.584606
v 32.172997 149.37764 -35.353352
v 32.083336 149.348541 -35.481548
v 35.929512 150.305359 -38.051517
v 34.061073 150.035873 -36.919384
v 30.156912 148.874191 -33.441868
v 29.970877 148.813583 -33.663441
v 30.398367 148.91153 -33.627674
v 30.215704 148.851288 -33.84972
v 38.330498 150.227829 -39.097195
v 36.274498 149.961365 -38.16441
v 38.303764 150.609543 -39.104954
v 36.201591 150.342712 -38.199284
v 28.196737 148.723984 -31.918316
v 26.738729 148.457458 -30.305265
v 69.33136 156.199631 -30.45068
v 69.121155 156.180878 -30.372837
v 69.096634 156.163239 -30.31291
v 69.390411 156.189529 -30.421177
v 70.623032 157.039658 -25.65476
v 70.40535 157.016235 -25.603407
v 70.374542 156.996613 -25.546968
v 70.678741 157.029388 -25.618563
v 70.359116 156.980804 -25.817652
v 70.57666 157.004135 -25.869596
v 70.613617 156.979492 -25.920221
v 70.309662 156.94693 -25.847471
v 70.960678 156.781555 -23.023085
v 70.868561 157.422668 -23.12142
v 70.809143 157.368134 -23.42243
v 70.901062 156.726883 -23.3249
v 69.819733 155.904694 -28.163198
v 69.729813 156.547668 -28.250772
v 70.030243 156.57782 -28.337862
v 70.120163 155.934845 -28.250292
v 71.380524 157.172668 -20.898283
v 71.288345 157.81366 -20.997301
v 71.59317 157.846878 -21.066084
v 71.685349 157.205902 -20.967066
v 71.441696 157.22818 -20.598169
v 71.349579 157.869232 -20.69684
v 71.33728 157.848404 -20.967333
v 71.555389 157.872162 -21.016645
v 69.378052 155.487381 -30.633854
v 69.290833 156.131653 -30.714298
v 69.478821 155.545807 -30.337694
v 69.184982 155.519501 -30.229431
v 68.998245 156.105972 -30.60252
v 69.085526 155.4617 -30.522076
v 69.05101 156.140015 -30.57951
v 69.260529 156.158447 -30.659145
v 71.076447 157.426804 -23.439615
v 71.118866 157.465652 -23.224958
v 71.173889 157.456329 -23.187796
v 71.114349 157.401764 -23.489035
v 70.056534 156.640915 -28.074972
v 69.841125 156.619049 -28.014259
v 69.81189 156.59964 -27.956419
v 70.112946 156.630219 -28.040987
v 71.106003 156.926254 -23.401537
v 70.951447 156.909225 -23.367807
v 70.51535 156.536438 -25.499685
v 70.669403 156.553024 -25.53594
v 69.781525 156.581619 -28.223911
v 71.38089 157.888 -20.753286
v 71.598938 157.911667 -20.803038
v 71.654221 157.902298 -20.766478
v 71.530228 157.753082 -21.035887
v 71.585068 157.371674 -20.976965
v 71.165604 156.980927 -23.099768
v 71.110825 157.362411 -23.158281
v 70.399582 156.304016 -25.75952
v 70.703537 156.336578 -25.83227
v 71.430771 157.354843 -20.942137
v 71.011002 156.963882 -23.066156
v 69.996552 156.603241 -28.285967
v 69.869492 156.086655 -28.208464
v 69.815964 156.469254 -28.260574
v 69.180893 156.083771 -30.328485
v 69.233475 155.700714 -30.278811
v 70.021591 156.101929 -28.252565
v 69.382324 155.714035 -30.333633
v 69.968124 156.484528 -28.304676
v 69.329742 156.097076 -30.383308
v 70.768921 156.386658 -25.529409
v 70.202621 155.987076 -27.954414
v 71.37587 157.736267 -21.001055
v 70.956223 157.345367 -23.12467
v 71.265945 156.815231 -23.08946
v 70.900375 157.441559 -23.177469
v 70.857956 157.402725 -23.391996
v 71.206268 156.760513 -23.391504
v 69.901489 155.956482 -27.86985
v 70.604141 156.503036 -25.838186
v 70.450226 156.486557 -25.801348
v 69.951508 156.138596 -27.914217
v 70.103973 156.154083 -27.957041
v 70.550613 156.885605 -25.890524
v 70.050644 156.536789 -28.008554
v 70.396698 156.86911 -25.853682
v 69.898163 156.521301 -27.965731
v 70.896729 157.290802 -23.425844
v 71.051285 157.307831 -23.459574
v 70.615692 156.935471 -25.588987
v 70.461639 156.918884 -25.552732
v 70.464722 156.353897 -25.457819
v 71.746338 157.261246 -20.667807
v 26.453604 148.897003 -30.423508
v 26.615683 148.944077 -30.274847
v 26.682013 148.93689 -30.277874
v 26.455679 148.87114 -30.48576
v 26.409063 148.198242 -30.217619
v 26.254263 148.833954 -30.250179
v 26.610296 148.235367 -30.45293
v 26.836554 148.301117 -30.24505
v 26.472692 148.917694 -30.107611
v 26.481527 148.899887 -30.043379
v 26.636328 148.26416 -30.01082
v 26.310171 148.870529 -30.25572
vt 0.502933 0.24874
vt 0.790112 0.248739
vt 0.790112 0.129335
vt 0.502933 0.129335
vt 0.888611 0.478305
vt 0.972848 0.478305
vt 0.989839 0.495296
vt 0.87162 0.495296
vt 0.502933 0.124066
vt 0.790112 0.124066
vt 0.790112 0.007355
vt 0.502933 0.007355
vt 0.502933 0.498896
vt 0.790112 0.498896
vt 0.790112 0.385264
vt 0.502933 0.385264
vt 0.888611 0.392983
vt 0.972848 0.392983
vt 0.87162 0.375992
vt 0.989838 0.375992
vt 0.86917 0.695216
vt 0.86917 0.746005
vt 0.094301 0.746005
vt 0.094301 0.695216
vt 0.86917 0.870498
vt 0.094301 0.870498
vt 0.86917 0.921287
vt 0.094301 0.921287
vt 0.502933 0.369704
vt 0.790112 0.369704
vt 0.86917 0.870498
vt 0.094301 0.870498
vt 0.094301 0.746005
vn 0.6048 0.1831 0.775
vn -0.0668 0.9855 0.1557
vn -0.3533 0.9345 -0.0427
vn -0.3523 0.8896 0.2908
vn -0.7672 -0.029 0.6407
vn -0.6171 -0.1814 -0.7657
vn -0.1747 0.9779 0.1149
vn 0.0963 0.9893 -0.1093
vn -0.1177 0.9185 -0.3774
vn -0.3897 0.9082 -0.1527
vn 0.209 0.8877 -0.4103
vn 0.1363 0.9646 0.2256
vn -0.4801 0.8615 0.1649
vn -0.4082 0.7876 -0.4615
vn -0.129 0.9857 -0.1083
vn 0.7417 0.0212 -0.6704
vn 0.1289 -0.9857 0.1085
vn 0.2664 -0.0633 -0.9618
vn 0.0571 0.9653 -0.2548
vn 0.0154 0.9954 0.0946
vn 0.3147 0.9485 -0.0374
vn -0.1981 0.9699 0.1416
vn -0.355 0.9192 -0.1704
vn -0.5082 0.8528 0.1199
vn -0.7417 -0.0213 0.6703
vn 0.1144 0.9932 -0.0214
vn 0.086 0.9465 0.311
vn -0.8322 -0.0481 0.5523
vn -0.5335 -0.1598 -0.8306
vn -0.1808 0.9739 0.137
vn 0.1138 0.9919 -0.0573
vn -0.0729 0.9339 -0.3499
vn -0.3677 0.9168 -0.1557
vn -0.4915 0.8579 0.1499
vn -0.3556 0.8072 -0.4711
vn -0.1549 0.9294 -0.3351
vn -0.4681 0.8176 -0.3353
vn -0.1155 0.9888 -0.095
vn 0.5087 -0.0226 -0.8607
vn 0.1156 -0.9887 0.0951
vn -0.5087 0.0227 0.8606
vn 0.6727 0.0071 -0.7399
vn 0.7085 0.1384 0.692
vn -0.6725 -0.007 0.7401
vn -0.7211 -0.1383 -0.6789
vn -0.0868 0.9805 0.1764
vn 0.1525 0.9847 -0.084
vn -0.1013 0.9407 -0.3238
vn -0.3403 0.9381 -0.0642
vn 0.2176 0.8899 -0.401
vn 0.2316 0.9424 0.2412
vn -0.3877 0.8826 0.2657
vn -0.4115 0.8304 -0.3757
vn -0.1067 0.9904 -0.0874
vn 0.6387 0.0009 -0.7695
vn 0.1067 -0.9904 0.0875
vn -0.6387 -0.0009 0.7694
vn -0.1318 0.985 -0.1118
vn 0.8135 0.0428 -0.5799
vn 0.1316 -0.985 0.1117
vn -0.8136 -0.0428 0.5799
vn -0.0423 0.9419 -0.3332
vn 0.2877 0.9104 -0.2974
vn -0.4482 -0.1456 -0.882
vn -0.8838 -0.0642 0.4635
vn -0.3118 0.8167 -0.4856
vn -0.1279 0.9861 -0.1065
vn 0.8646 0.0581 -0.4991
vn 0.436 0.1426 0.8886
vn -0.9127 -0.0736 0.402
vn 0.1246 -0.9871 0.1003
vn 0.9127 0.0736 -0.402
vn 0.8838 0.0642 -0.4634
vn 0.1186 0.9534 0.2774
vn 0.2581 0.9015 -0.3474
vn -0.1246 0.9871 -0.1002
vn 0.5232 0.1592 0.8372
vn 0.8323 0.0481 -0.5522
vn 0.1277 -0.9861 0.1065
vn -0.8646 -0.0581 0.4991
vn -0.1963 0.9247 -0.3262
vn 0.1195 0.9767 -0.1781
vn 0.0848 0.8652 -0.4943
vn -0.0294 0.9894 0.1422
vn 0.2958 0.949 0.1086
vn -0.3452 0.9385 -0.0062
vn -0.2913 0.9003 0.3233
vn -0.5078 0.8171 -0.273
vn -0.12 0.9879 -0.0982
vn 0.3581 -0.0481 -0.9325
vn 0.1201 -0.9879 0.0983
vn -0.3581 0.0481 0.9325
vn 0.5568 -0.0142 -0.8305
vn 0.804 0.1476 0.576
vn -0.5564 0.0143 0.8308
vn 0.981 0.1487 0.1249
vn -0.8156 -0.1482 -0.5594
vn 0.1313 0.9818 -0.1369
vn 0.1489 0.8767 -0.4574
vn 0.2596 0.9497 0.1749
vn 0.9483 0.155 0.2769
vn -0.2662 0.0633 0.9618
vn -0.9537 -0.1554 -0.2575
vn -0.0126 0.993 0.1172
vn 0.0827 0.9713 -0.2229
vn -0.2532 0.9143 -0.3161
vn -0.3487 0.9369 0.0244
vn -0.0026 0.8502 -0.5264
vn 0.3054 0.9517 0.0317
vn -0.2431 0.9079 0.3415
vn -0.5509 0.8081 -0.2085
vn -0.1422 0.9843 -0.1045
vn 0.2056 -0.0731 -0.9759
vn 0.1421 -0.9843 0.1044
vn -0.2056 0.0731 0.9759
vn 0.4177 -0.0384 -0.9078
vn 0.8884 0.1517 0.4333
vn -0.4174 0.0385 0.9079
vn -0.8974 -0.1515 -0.4143
vn 0.7674 0.029 -0.6405
vn -0.4721 -0.1049 -0.8753
vn -0.3026 0.945 0.124
vn -0.392 0.8941 -0.2168
vn -0.5895 0.8068 0.0401
vn -0.2882 0.9113 -0.2941
vn -0.0746 0.8396 -0.5381
vn 0.035 0.9968 0.0725
vn 0.0278 0.9599 -0.2788
vn -0.3205 0.9077 -0.2708
vn -0.3136 0.9461 0.0805
vn -0.3761 0.9049 -0.1994
vn -0.0519 0.9407 -0.3353
vn -0.3017 0.8025 -0.5148
vn -0.1852 0.978 -0.0959
vn -0.1924 0.9767 -0.095
vn -0.982 -0.139 0.1276
vn -0.2846 -0.1446 -0.9477
vn 0.342 0.1524 0.9273
vn -0.0509 0.9454 -0.3218
vn 0.0583 0.9983 0.0049
vn 0.2683 0.933 -0.2397
vn -0.3768 0.9032 -0.2058
vn -0.2861 0.8113 -0.5098
vn -0.2676 0.956 0.1206
vn -0.9331 -0.1271 0.3363
vn 0.3141 0.1491 0.9376
vn 0.9355 0.1274 -0.3294
vn -0.3141 -0.1492 -0.9376
vn -0.2482 0.9606 0.1252
vn -0.5526 0.8294 0.0819
vn 0.0784 0.9969 -0.0103
vn 0.0273 0.9495 0.3124
vn 0.2756 0.9239 -0.2655
vn -0.2534 -0.1401 -0.9572
vn 0.9544 0.1288 -0.2693
vn 0.2535 0.1402 0.9571
vn -0.9521 -0.1287 0.2773
vn 0.0332 0.9991 0.0257
vn -0.0579 0.948 -0.3131
vn -0.2831 0.8036 -0.5235
vn -0.9832 -0.1478 -0.1074
vn 0.1845 -0.9781 0.0959
vn 0.2846 0.1446 0.9477
vn -0.1901 -0.1311 -0.973
vn 0.9706 0.1346 -0.1997
vn 0.1902 0.1311 0.973
vn -0.1139 0.0873 0.9897
vn 0.1141 -0.0873 -0.9896
vn -0.0072 0.9461 0.3238
vn -0.3666 -0.1554 -0.9173
vn 0.9153 0.1238 -0.3832
vn 0.0571 0.1122 0.992
vn 0.3665 0.1554 0.9173
vn -0.3301 0.9423 0.0554
vn 0.1474 -0.9837 0.103
vn -0.9126 -0.1234 0.3898
vn 0.06 0.9982 0.0092
vn -0.2277 0.9634 0.1412
vn 0.0327 0.9336 0.3568
vn -0.0672 0.9461 -0.317
vn 0.2446 0.9293 -0.2768
vn -0.3699 0.9101 -0.1867
vn -0.3101 0.8277 -0.4678
vn -0.0571 -0.1122 -0.992
vn -0.1474 0.9837 -0.103
vn -0.576 0.8134 -0.0819
vn -0.1202 0.9269 0.3556
vn 0.3131 0.9448 -0.0966
vn -0.1436 0.8296 -0.5396
vn 0.1869 -0.9777 0.0956
vn -0.1402 0.9847 -0.1033
vn 0.066 -0.0943 -0.9933
vn 0.1402 -0.9847 0.1033
vn 0.2658 0.9414 -0.2077
vn -0.5664 0.812 -0.1412
vn -0.9894 -0.1434 0.0231
vn 0.0263 0.1079 0.9938
vn 0.9895 0.1442 -0.009
vn -0.0259 -0.1078 -0.9938
vn 0.1518 0.1257 0.9804
vn 0.1575 -0.9823 0.1016
vn -0.1518 -0.1257 -0.9804
vn -0.055 0.9383 0.3413
vn -0.2886 0.9511 0.1097
vn -0.3554 0.9049 -0.234
vn -0.5752 0.818 0.0026
vn -0.1656 0.9811 -0.0999
vn -0.2194 -0.1352 -0.9662
vn -0.1775 0.9187 0.3528
vn 0.1652 -0.9812 0.1001
vn -0.5634 0.8243 0.056
vn 0.0533 0.9979 0.0376
vn -0.0537 0.9363 0.3471
vn 0.0874 0.1166 0.9893
vn 0.9835 0.1394 -0.1156
vn -0.0876 -0.1166 -0.9893
vn 0.2194 0.1352 0.9662
vn -0.1492 0.9828 -0.1085
vn -0.342 -0.1524 -0.9273
vn 0.1499 -0.9828 0.108
vn -0.066 0.0943 0.9933
vn -0.9099 -0.0549 0.4112
vn 0.4031 0.0462 0.914
vn 0.9146 0.0485 -0.4014
vn -0.4011 -0.0367 -0.9153
vn 0.4688 0.1076 0.8767
vn -0.9688 -0.1332 0.209
vn -0.0137 0.9519 -0.3062
vn 0.0146 0.9555 -0.2945
vn 0.047 0.9974 0.055
vn 0.3104 0.9396 -0.144
vn -0.2249 0.8183 -0.529
vn -0.2999 0.9491 0.096
vn -0.0918 0.9309 0.3535
vn -0.3325 0.9085 -0.2533
vn -0.5742 0.818 -0.0351
vn 0.2968 0.9376 -0.1809
vn -0.1575 0.9823 -0.1016
vn -0.5214 0.8508 0.0655
vn -0.1707 0.8258 -0.5375
vn 0.1931 -0.9774 0.086
vn 0.4922 0.1722 0.8533
vn 0.5539 0.1813 0.8126
vn 0.8666 0.1214 -0.484
vn -0.2016 0.9761 -0.0805
vn 0.3933 0.1046 0.9134
vn 0.6789 0.2018 0.7059
vn -0.8631 -0.1214 0.4902
vn -0.4287 0.8972 -0.1062
vn -0.1693 0.9309 -0.3237
vn -0.4122 0.8088 -0.4194
vn 0.5949 0.113 0.7958
vn -0.4288 0.8935 -0.1335
vn -0.1348 0.9365 -0.3236
vn -0.4096 0.7929 -0.451
vn 0.1149 0.9272 0.3565
vn 0.0484 0.9984 -0.0282
vn -0.2457 0.9557 0.1619
vn -0.8321 -0.1221 0.5411
vn 0.6993 0.124 -0.704
vn 0.0195 0.9981 -0.0577
vn -0.2227 0.9249 -0.3081
vn -0.4695 0.881 -0.058
vn -0.2291 0.9538 0.1944
vn -0.5177 0.7684 -0.3764
vn 0.1112 0.9227 -0.3692
vn 0.0957 0.9599 0.2635
vn 0.0409 0.9985 -0.0355
vn -0.156 0.9339 -0.3218
vn -0.4386 0.8914 -0.1144
vn -0.2416 0.955 0.1719
vn -0.5191 0.8104 0.2717
vn -0.4328 0.7892 -0.4356
vn 0.1762 0.9261 -0.3337
vn 0.0662 0.9528 0.2963
vn -0.5421 0.8167 0.1981
vn -0.2372 0.9692 -0.0657
vn -0.6935 -0.116 -0.7111
vn 0.2311 -0.9706 0.0673
vn 0.6881 0.1206 0.7155
vn -0.5199 -0.1763 -0.8359
vn -0.2346 0.9707 -0.0517
vn 0.8362 0.122 -0.5346
vn -0.7085 -0.207 -0.6747
vn 0.2172 -0.973 0.0784
vn -0.1059 0.9389 -0.3275
vn 0.0552 0.9983 -0.0187
vn 0.2251 0.9274 -0.2989
vn -0.4119 0.8976 -0.1569
vn -0.3682 0.7989 -0.4757
vn -0.554 -0.1813 -0.8125
vn 0.7998 0.1234 -0.5874
vn -0.6789 -0.2018 -0.7059
vn 0.0584 0.9517 0.3014
vn 0.5199 0.1763 0.8358
vn -0.2508 0.9561 0.1518
vn -0.2146 0.9731 -0.0835
vn -0.5912 -0.1082 -0.7993
vn -0.0144 0.9647 -0.263
vn 0.1193 0.9241 -0.3631
vn -0.6922 -0.1239 0.711
vn 0.2016 -0.9762 0.0805
vn -0.5396 -0.1791 -0.8227
vn -0.1931 0.9774 -0.086
vn 0.5396 0.1791 0.8227
vn -0.738 -0.1392 0.6603
vn 0.5935 0.0277 0.8044
vn 0.4528 0.1667 0.8759
vn 0.7441 0.1395 -0.6533
vn -0.5501 0.818 0.1683
vn -0.5876 -0.0082 -0.8091
vn 0.1733 -0.9796 0.1015
vn -0.4529 -0.1667 -0.8759
vn 0.2004 0.9275 -0.3155
vn -0.3913 -0.1022 -0.9146
vn -0.1699 0.9799 -0.1047
vn -0.3963 0.9152 0.0728
vn -0.5217 0.8282 0.2046
vn -0.7948 -0.1236 0.5941
vn 0.2346 -0.9707 0.0517
vn -0.5537 0.821 0.1391
vn 0.0397 0.9489 0.313
vn 0.7085 0.207 0.6746
vn -0.4922 -0.1722 -0.8533
vn 0.0861 0.9956 -0.0363
vn -0.2449 0.966 0.0833
vn 0.0211 0.9572 0.2888
vn 0.0753 0.9972 0.0007
vn -0.2669 0.9603 0.081
vn -0.0283 0.9491 0.3138
vn -0.341 0.9039 -0.2583
vn 0.0011 0.941 -0.3385
vn -0.2182 0.805 -0.5517
vn -0.9715 -0.1072 0.2112
vn -0.2592 -0.1658 -0.9515
vn -0.1982 -0.1774 -0.964
vn -0.9703 -0.106 0.2174
vn -0.3429 0.897 -0.2788
vn -0.0002 0.9345 -0.3559
vn -0.2151 0.7933 -0.5695
vn 0.9381 0.0852 -0.3357
vn 0.3279 0.1656 0.9301
vn -0.9381 -0.0852 0.3356
vn -0.3398 -0.1617 -0.9265
vn -0.36 0.9012 -0.2411
vn -0.0282 0.932 -0.3613
vn -0.2757 0.7954 -0.5398
vn 0.0018 0.9362 -0.3514
vn 0.0687 0.9976 -0.0126
vn 0.311 0.9225 -0.2285
vn 0.0861 0.9962 -0.0132
vn -0.2532 0.9633 0.0889
vn -0.0082 0.9495 0.3137
vn 0.1391 -0.9799 0.1429
vn -0.3464 0.9042 -0.2498
vn -0.5488 0.836 0.006
vn -0.2728 0.9601 0.0613
vn 0.0699 0.9974 -0.0157
vn 0.3107 0.9213 -0.2337
vn -0.5584 0.8294 -0.0166
vn 0.9715 0.107 -0.2117
vn -0.2133 -0.1616 -0.9635
vn -0.0355 0.954 0.2978
vn 0.141 -0.9782 0.1522
vn -0.0067 0.9368 -0.3499
vn -0.2393 0.8008 -0.549
vn -0.9472 -0.0904 0.3078
vn 0.1392 -0.9803 0.14
vn 0.9472 0.0903 -0.3078
vn 0.2963 0.9129 -0.2809
vn 0.3137 0.9236 -0.2205
vn 0.9684 0.1045 -0.2264
vn 0.9545 0.095 -0.2827
vn -0.9715 -0.1071 0.2117
vn 0.1906 0.1755 0.9658
vn -0.2732 0.96 0.0618
vn -0.3403 0.8985 -0.2771
vn -0.1916 -0.1744 -0.9659
vn 0.2513 0.1634 0.954
vn -0.9545 -0.0949 0.2828
vn 0.3167 0.9147 -0.2512
vn 0.1362 -0.9822 0.1296
vn -0.5488 0.8357 0.0211
vn -0.0402 0.9535 0.2986
vn -0.5609 0.8269 -0.039
vn -0.2113 0.7968 -0.5661
vn 0.9644 0.1015 -0.2444
vn -0.1362 0.9822 -0.1296
vn -0.1391 0.9799 -0.1429
vn 0.9704 0.1062 -0.2171
vn -0.9684 -0.1045 0.2263
vn 0.2093 0.1631 0.9641
vn 0.9703 0.106 -0.2173
vn -0.563 0.8256 -0.038
vn -0.9704 -0.1062 0.2171
vn -0.1391 0.9803 -0.14
vn 0.201 0.1772 0.9634
vn -0.9644 -0.1015 0.2443
vn 0.9715 0.1071 -0.2114
vn -0.1409 0.9782 -0.1522
vn -0.2427 0.9239 -0.2958
vn 0.0135 0.9978 -0.0642
vn 0.0818 0.9211 -0.3806
vn -0.7264 -0.2104 -0.6543
vn 0.6525 0.12 -0.7482
vn -0.2155 0.9557 0.2006
vn 0.1156 0.9612 0.2505
vn 0.7264 0.2104 0.6542
vn -0.649 -0.1196 0.7513
vn -0.4716 0.8813 -0.031
vn -0.5033 0.8126 0.2938
vn -0.5384 0.7717 -0.3385
f 1/1/1 2/2/1 3/3/1 4/4/1
f 5/5/2 6/6/3 7/7/4 8/8/4
f 4/9/5 3/10/5 9/11/5 10/12/5
f 10/13/6 9/14/6 11/15/6 12/16/6
f 13/5/7 14/17/8 15/18/9 16/6/10
f 15/18/9 14/17/8 2/19/11 11/20/11
f 14/17/8 13/5/7 3/8/12 2/19/12
f 13/5/7 16/6/10 9/7/13 3/8/13
f 16/6/10 15/18/9 11/20/14 9/7/14
f 17/21/15 18/22/15 19/23/15 20/24/15
f 18/22/16 21/25/16 22/26/16 19/23/16
f 21/25/17 23/27/17 24/28/17 22/26/17
f 25/29/18 26/30/18 27/2/18 28/1/18
f 29/17/19 30/5/20 31/8/21 32/19/21
f 33/5/22 34/6/23 35/7/24 36/8/24
f 23/22/25 17/31/25 20/32/25 24/33/25
f 37/17/26 33/5/22 36/8/27 38/19/27
f 39/9/28 40/10/28 41/11/28 42/12/28
f 42/13/29 41/14/29 43/15/29 44/16/29
f 45/5/30 46/17/31 47/18/32 48/6/33
f 45/5/30 48/6/33 41/7/34 40/8/34
f 48/6/33 47/18/32 43/20/35 41/7/35
f 6/6/3 49/18/36 50/20/37 7/7/37
f 51/21/38 52/22/38 53/23/38 54/24/38
f 52/22/39 55/25/39 56/26/39 53/23/39
f 55/25/40 57/27/40 58/28/40 56/26/40
f 57/22/41 51/31/41 54/32/41 58/33/41
f 59/29/42 60/30/42 61/2/42 62/1/42
f 62/1/43 61/2/43 63/3/43 64/4/43
f 64/9/44 63/10/44 65/11/44 66/12/44
f 66/13/45 65/14/45 60/15/45 59/16/45
f 67/5/46 68/17/47 69/18/48 70/6/49
f 69/18/48 68/17/47 61/19/50 60/20/50
f 68/17/47 67/5/46 63/8/51 61/19/51
f 67/5/46 70/6/49 65/7/52 63/8/52
f 70/6/49 69/18/48 60/20/53 65/7/53
f 71/21/54 72/22/54 73/23/54 74/24/54
f 72/22/55 75/25/55 76/26/55 73/23/55
f 75/25/56 77/27/56 78/28/56 76/26/56
f 77/22/57 71/31/57 74/32/57 78/33/57
f 79/21/58 80/22/58 81/23/58 82/24/58
f 80/22/59 83/25/59 84/26/59 81/23/59
f 83/25/60 85/27/60 86/28/60 84/26/60
f 85/22/61 79/31/61 82/32/61 86/33/61
f 87/18/62 37/17/26 38/19/63 88/20/63
f 33/5/22 37/17/26 87/18/62 34/6/23
f 89/13/64 35/14/64 88/15/64 90/16/64
f 91/9/65 36/10/65 35/11/65 89/12/65
f 34/6/23 87/18/62 88/20/66 35/7/66
f 92/21/67 93/22/67 94/23/67 95/24/67
f 93/22/68 96/25/68 97/26/68 94/23/68
f 98/1/69 38/2/69 36/3/69 91/4/69
f 99/22/70 100/31/70 101/32/70 102/33/70
f 103/25/71 99/27/71 102/28/71 104/26/71
f 105/22/72 103/25/72 104/26/72 106/23/72
f 90/29/73 88/30/73 38/2/73 98/1/73
f 46/17/31 45/5/30 40/8/74 107/19/74
f 47/18/32 46/17/31 107/19/75 43/20/75
f 100/21/76 105/22/76 106/23/76 101/24/76
f 108/1/77 107/2/77 40/3/77 39/4/77
f 44/29/78 43/30/78 107/2/78 108/1/78
f 96/25/79 109/27/79 110/28/79 97/26/79
f 109/22/80 92/31/80 95/32/80 110/33/80
f 111/18/81 112/17/82 113/19/83 114/20/83
f 112/17/82 115/5/84 116/8/85 113/19/85
f 115/5/84 117/6/86 118/7/87 116/8/87
f 117/6/86 111/18/81 114/20/88 118/7/88
f 119/21/89 120/22/89 121/23/89 122/24/89
f 120/22/90 123/25/90 124/26/90 121/23/90
f 123/25/91 125/27/91 126/28/91 124/26/91
f 125/22/92 119/31/92 122/32/92 126/33/92
f 127/29/93 50/30/93 128/2/93 129/1/93
f 129/1/94 128/2/94 8/3/94 130/4/94
f 130/9/95 8/10/95 7/11/95 131/12/95
f 132/1/96 32/2/96 31/3/96 133/4/96
f 131/13/97 7/14/97 50/15/97 127/16/97
f 5/5/2 134/17/98 49/18/36 6/6/3
f 49/18/36 134/17/98 128/19/99 50/20/99
f 134/17/98 5/5/2 8/8/100 128/19/100
f 28/1/101 27/2/101 135/3/101 136/4/101
f 136/9/102 135/10/102 137/11/102 138/12/102
f 138/13/103 137/14/103 26/15/103 25/16/103
f 139/5/104 140/17/105 141/18/106 142/6/107
f 141/18/106 140/17/105 27/19/108 26/20/108
f 140/17/105 139/5/104 135/8/109 27/19/109
f 139/5/104 142/6/107 137/7/110 135/8/110
f 142/6/107 141/18/106 26/20/111 137/7/111
f 143/21/112 144/22/112 145/23/112 146/24/112
f 144/22/113 147/25/113 148/26/113 145/23/113
f 147/25/114 149/27/114 150/28/114 148/26/114
f 149/22/115 143/31/115 146/32/115 150/33/115
f 151/29/116 114/30/116 113/2/116 152/1/116
f 152/1/117 113/2/117 116/3/117 153/4/117
f 153/9/118 116/10/118 118/11/118 154/12/118
f 154/13/119 118/14/119 114/15/119 151/16/119
f 115/5/84 112/17/82 111/18/81 117/6/86
f 12/29/120 11/30/120 2/2/120 1/1/120
f 155/22/121 156/25/121 157/26/121 158/23/121
f 159/6/122 160/18/123 161/20/124 162/7/124
f 163/18/125 29/17/19 32/19/126 164/20/126
f 165/5/127 166/17/128 167/18/129 168/6/130
f 169/18/131 170/17/132 171/19/133 172/20/133
f 173/21/134 174/22/134 175/23/134 176/24/134
f 177/21/135 155/22/135 158/23/135 178/24/135
f 179/13/136 180/14/136 181/15/136 182/16/136
f 174/22/137 183/25/137 184/26/137 175/23/137
f 185/22/138 186/31/138 187/32/138 188/33/138
f 189/17/139 190/5/140 191/8/141 192/19/141
f 193/18/142 189/17/139 192/19/143 194/20/143
f 190/5/140 189/17/139 193/18/142 195/6/144
f 196/13/145 197/14/145 194/15/145 198/16/145
f 199/9/146 191/10/146 197/11/146 196/12/146
f 200/1/147 192/2/147 191/3/147 199/4/147
f 198/29/148 194/30/148 192/2/148 200/1/148
f 201/6/149 169/18/131 172/20/150 202/7/150
f 203/5/151 201/6/149 202/7/152 204/8/152
f 170/17/132 203/5/151 204/8/153 171/19/153
f 205/29/154 161/30/154 206/2/154 207/1/154
f 207/1/155 206/2/155 208/3/155 209/4/155
f 209/9/156 208/10/156 162/11/156 210/12/156
f 210/13/157 162/14/157 161/15/157 205/16/157
f 211/5/158 212/17/159 160/18/123 159/6/122
f 160/18/123 212/17/159 206/19/160 161/20/160
f 213/13/161 214/14/161 164/15/161 215/16/161
f 183/25/162 216/27/162 217/28/162 184/26/162
f 216/22/163 173/31/163 176/32/163 217/33/163
f 218/29/164 219/30/164 220/2/164 221/1/164
f 221/1/165 220/2/165 222/3/165 223/4/165
f 223/9/166 222/10/166 224/11/166 225/12/166
f 133/9/167 31/10/167 214/11/167 213/12/167
f 215/29/168 164/30/168 32/2/168 132/1/168
f 190/5/140 195/6/144 197/7/169 191/8/169
f 226/29/170 172/30/170 171/2/170 227/1/170
f 227/1/171 171/2/171 204/3/171 228/4/171
f 229/22/172 230/31/172 231/32/172 232/33/172
f 228/9/173 204/10/173 202/11/173 233/12/173
f 30/5/20 29/17/19 163/18/125 234/6/174
f 235/25/175 229/27/175 232/28/175 236/26/175
f 233/13/176 202/14/176 172/15/176 226/16/176
f 203/5/151 170/17/132 169/18/131 201/6/149
f 237/5/177 238/6/178 239/7/179 240/8/179
f 241/17/180 237/5/177 240/8/181 242/19/181
f 243/18/182 241/17/180 242/19/183 244/20/183
f 237/5/177 241/17/180 243/18/182 238/6/178
f 245/22/184 235/25/184 236/26/184 246/23/184
f 230/21/185 245/22/185 246/23/185 231/24/185
f 168/6/130 167/18/129 247/20/186 248/7/186
f 165/5/127 168/6/130 248/7/187 249/8/187
f 166/17/128 165/5/127 249/8/188 250/19/188
f 167/18/129 166/17/128 250/19/189 247/20/189
f 156/25/190 251/27/190 252/28/190 157/26/190
f 253/21/191 254/22/191 255/23/191 256/24/191
f 254/22/192 257/25/192 258/26/192 255/23/192
f 257/25/193 259/27/193 260/28/193 258/26/193
f 212/17/159 211/5/158 208/8/194 206/19/194
f 234/6/174 163/18/125 164/20/195 214/7/195
f 261/13/196 248/14/196 247/15/196 262/16/196
f 263/9/197 249/10/197 248/11/197 261/12/197
f 264/1/198 250/2/198 249/3/198 263/4/198
f 262/29/199 247/30/199 250/2/199 264/1/199
f 265/22/200 266/31/200 267/32/200 268/33/200
f 269/25/201 265/27/201 268/28/201 270/26/201
f 271/22/202 269/25/202 270/26/202 272/23/202
f 211/5/158 159/6/122 162/7/203 208/8/203
f 273/6/204 274/18/205 219/20/206 224/7/206
f 275/21/207 276/22/207 277/23/207 278/24/207
f 276/22/208 279/25/208 280/26/208 277/23/208
f 30/5/20 234/6/174 214/7/209 31/8/209
f 279/25/210 281/27/210 282/28/210 280/26/210
f 195/6/144 193/18/142 194/20/211 197/7/211
f 283/5/212 273/6/204 224/7/213 222/8/213
f 284/9/214 285/10/214 180/11/214 179/12/214
f 286/1/215 287/2/215 285/3/215 284/4/215
f 182/29/216 181/30/216 287/2/216 286/1/216
f 281/22/217 275/31/217 278/32/217 282/33/217
f 186/21/218 288/22/218 289/23/218 187/24/218
f 288/22/219 290/25/219 291/26/219 289/23/219
f 290/25/220 185/27/220 188/28/220 291/26/220
f 259/22/221 253/31/221 256/32/221 260/33/221
f 292/13/222 239/14/222 244/15/222 293/16/222
f 294/9/223 240/10/223 239/11/223 292/12/223
f 295/1/224 242/2/224 240/3/224 294/4/224
f 293/29/225 244/30/225 242/2/225 295/1/225
f 251/22/226 177/31/226 178/32/226 252/33/226
f 225/13/227 224/14/227 219/15/227 218/16/227
f 283/5/212 296/17/228 274/18/205 273/6/204
f 297/17/229 298/5/230 285/8/231 287/19/231
f 274/18/205 296/17/228 220/19/232 219/20/232
f 298/5/230 299/6/233 180/7/234 285/8/234
f 299/6/233 300/18/235 181/20/236 180/7/236
f 296/17/228 283/5/212 222/8/237 220/19/237
f 266/21/238 271/22/238 272/23/238 267/24/238
f 238/6/178 243/18/182 244/20/239 239/7/239
f 300/18/235 297/17/229 287/19/240 181/20/240
f 298/5/230 297/17/229 300/18/235 299/6/233
f 301/25/241 302/27/241 303/28/241 304/26/241
f 302/22/242 305/31/242 306/32/242 303/33/242
f 307/9/243 308/10/243 309/11/243 310/12/243
f 311/1/244 312/2/244 313/3/244 314/4/244
f 315/21/245 316/22/245 317/23/245 318/24/245
f 319/22/246 320/31/246 321/32/246 322/33/246
f 323/9/247 324/10/247 325/11/247 326/12/247
f 327/13/248 328/14/248 329/15/248 330/16/248
f 331/18/249 332/17/250 333/19/251 334/20/251
f 335/22/252 336/31/252 337/32/252 338/33/252
f 339/18/253 340/17/254 341/19/255 342/20/255
f 343/5/256 344/6/256 345/7/256 346/8/256
f 347/5/257 340/17/254 339/18/253 348/6/258
f 349/13/259 350/14/259 342/15/259 351/16/259
f 352/1/260 353/2/260 324/3/260 323/4/260
f 354/5/261 355/17/262 356/18/263 357/6/264
f 356/18/263 355/17/262 353/19/265 358/20/265
f 355/17/262 354/5/261 324/8/266 353/19/266
f 354/5/261 357/6/264 325/7/267 324/8/267
f 359/5/268 360/17/269 361/18/270 362/6/271
f 357/6/264 356/18/263 358/20/272 325/7/272
f 361/18/270 360/17/269 363/19/273 364/20/273
f 360/17/269 359/5/268 308/8/274 363/19/274
f 359/5/268 362/6/271 309/7/275 308/8/275
f 362/6/271 361/18/270 364/20/276 309/7/276
f 365/21/277 366/22/277 367/23/277 368/24/277
f 366/22/278 369/25/278 370/26/278 367/23/278
f 369/25/279 371/27/279 372/28/279 370/26/279
f 371/22/280 365/31/280 368/32/280 372/33/280
f 351/29/281 342/30/281 341/2/281 373/1/281
f 374/21/282 375/22/282 376/23/282 377/24/282
f 373/1/283 341/2/283 378/3/283 379/4/283
f 375/22/284 380/25/284 381/26/284 376/23/284
f 382/25/285 335/27/285 338/28/285 383/26/285
f 384/17/286 385/5/287 313/8/288 312/19/288
f 386/18/289 384/17/286 312/19/290 329/20/290
f 387/29/291 364/30/291 363/2/291 388/1/291
f 388/1/292 363/2/292 308/3/292 307/4/292
f 389/29/293 358/30/293 353/2/293 352/1/293
f 347/5/257 348/6/258 350/7/294 378/8/294
f 379/9/295 378/10/295 350/11/295 349/12/295
f 385/5/287 384/17/286 386/18/289 390/6/296
f 336/21/297 391/22/297 392/23/297 337/24/297
f 391/22/298 382/25/298 383/26/298 392/23/298
f 332/17/250 343/5/299 346/8/300 333/19/300
f 326/13/301 325/14/301 358/15/301 389/16/301
f 393/25/302 394/27/302 395/28/302 396/26/302
f 316/22/303 393/25/303 396/26/303 317/23/303
f 305/21/304 397/22/304 398/23/304 306/24/304
f 394/22/305 315/31/305 318/32/305 395/33/305
f 399/13/306 345/14/306 334/15/306 400/16/306
f 401/9/307 346/10/307 345/11/307 399/12/307
f 314/9/308 313/10/308 328/11/308 327/12/308
f 402/1/309 333/2/309 346/3/309 401/4/309
f 348/6/258 339/18/253 342/20/310 350/7/310
f 400/29/311 334/30/311 333/2/311 402/1/311
f 403/25/312 319/27/312 322/28/312 404/26/312
f 330/29/313 329/30/313 312/2/313 311/1/313
f 340/17/254 347/5/257 378/8/314 341/19/314
f 405/22/315 403/25/315 404/26/315 406/23/315
f 320/21/316 405/22/316 406/23/316 321/24/316
f 344/6/317 331/18/249 334/20/318 345/7/318
f 310/13/319 309/14/319 364/15/319 387/16/319
f 380/25/320 407/27/320 408/28/320 381/26/320
f 390/6/296 386/18/289 329/20/321 328/7/321
f 385/5/287 390/6/296 328/7/322 313/8/322
f 343/5/299 332/17/250 331/18/249 344/6/317
f 407/22/323 374/31/323 377/32/323 408/33/323
f 397/22/324 301/25/324 304/26/324 398/23/324
f 409/17/325 410/5/326 411/8/327 412/19/327
f 413/17/328 414/5/329 415/8/330 416/19/330
f 417/6/331 418/18/332 419/20/333 420/7/333
f 421/9/334 422/10/334 423/11/334 424/12/334
f 425/13/335 426/14/335 427/15/335 428/16/335
f 429/13/336 430/14/336 431/15/336 432/16/336
f 433/9/337 434/10/337 430/11/337 429/12/337
f 435/6/338 436/18/339 431/20/340 430/7/340
f 437/29/341 438/30/341 412/2/341 439/1/341
f 439/1/342 412/2/342 411/3/342 440/4/342
f 440/9/343 411/10/343 441/11/343 442/12/343
f 442/13/344 441/14/344 438/15/344 437/16/344
f 443/6/345 444/18/346 438/20/347 441/7/347
f 445/18/348 446/17/349 447/19/350 448/20/350
f 449/17/351 450/5/352 451/8/353 452/19/353
f 453/25/354 454/27/354 455/28/354 456/26/354
f 450/5/352 457/6/355 426/7/356 451/8/356
f 458/5/357 459/17/358 436/18/339 435/6/338
f 436/18/339 459/17/358 460/19/359 431/20/359
f 414/5/329 417/6/331 420/7/360 415/8/360
f 461/22/361 462/25/361 463/26/361 464/23/361
f 465/13/362 420/14/362 419/15/362 466/16/362
f 414/5/329 413/17/328 418/18/332 417/6/331
f 459/17/358 458/5/357 434/8/363 460/19/363
f 462/25/364 467/27/364 468/28/364 463/26/364
f 457/6/355 469/18/365 427/20/366 426/7/366
f 470/22/367 471/31/367 472/32/367 473/33/367
f 474/25/368 470/27/368 473/28/368 475/26/368
f 410/5/326 409/17/325 444/18/346 443/6/345
f 476/22/369 474/25/369 475/26/369 477/23/369
f 444/18/346 409/17/325 412/19/370 438/20/370
f 418/18/332 413/17/328 416/19/371 419/20/371
f 466/29/372 419/30/372 416/2/372 478/1/372
f 428/29/373 427/30/373 452/2/373 479/1/373
f 467/22/374 480/31/374 481/32/374 468/33/374
f 482/1/375 447/2/375 422/3/375 421/4/375
f 483/5/376 446/17/349 445/18/348 484/6/377
f 424/13/378 423/14/378 448/15/378 485/16/378
f 479/1/379 452/2/379 451/3/379 486/4/379
f 486/9/380 451/10/380 426/11/380 425/12/380
f 450/5/352 449/17/351 469/18/365 457/6/355
f 469/18/365 449/17/351 452/19/381 427/20/381
f 487/25/382 488/27/382 489/28/382 490/26/382
f 410/5/326 443/6/345 441/7/383 411/8/383
f 446/17/349 483/5/376 422/8/384 447/19/384
f 483/5/376 484/6/377 423/7/385 422/8/385
f 484/6/377 445/18/348 448/20/386 423/7/386
f 491/22/387 487/25/387 490/26/387 492/23/387
f 493/21/388 491/22/388 492/23/388 494/24/388
f 495/21/389 496/22/389 497/23/389 498/24/389
f 496/22/390 453/25/390 456/26/390 497/23/390
f 499/9/391 415/10/391 420/11/391 465/12/391
f 478/1/392 416/2/392 415/3/392 499/4/392
f 432/29/393 431/30/393 460/2/393 500/1/393
f 458/5/357 435/6/338 430/7/394 434/8/394
f 454/22/395 495/31/395 498/32/395 455/33/395
f 471/21/396 476/22/396 477/23/396 472/24/396
f 500/1/397 460/2/397 434/3/397 433/4/397
f 488/22/398 493/31/398 494/32/398 489/33/398
f 485/29/399 448/30/399 447/2/399 482/1/399
f 480/21/400 461/22/400 464/23/400 481/24/400
f 501/17/401 502/5/402 503/8/403 504/19/403
f 505/29/404 506/30/404 504/2/404 507/1/404
f 507/1/405 504/2/405 503/3/405 508/4/405
f 502/5/402 509/6/406 510/7/407 503/8/407
f 508/9/408 503/10/408 510/11/408 511/12/408
f 511/13/409 510/14/409 506/15/409 505/16/409
f 509/6/406 512/18/410 506/20/411 510/7/411
f 502/5/402 501/17/401 512/18/410 509/6/406
f 512/18/410 501/17/401 504/19/412 506/20/412